<svg width="24" height="24" viewBox="0 0 24 24" fill="none" xmlns="http://www.w3.org/2000/svg">
<path fill-rule="evenodd" clip-rule="evenodd" d="M12.3493 16.1995L9.96447 18.7503C9.70526 19.0379 9.38726 19.2665 9.032 19.4205C8.67674 19.5745 8.29252 19.6504 7.90538 19.6429C7.50382 19.6253 7.10982 19.5276 6.74657 19.3555C6.38331 19.1835 6.05813 18.9405 5.79014 18.6409C5.20395 18.0521 4.86642 17.2606 4.84734 16.4299C4.82827 15.5993 5.12911 14.7931 5.68766 14.178L8.07286 11.6282C8.29764 11.3816 8.42223 11.06 8.42223 10.7264C8.42223 10.3927 8.29764 10.0711 8.07286 9.8245C7.96613 9.70688 7.83596 9.61288 7.69074 9.54856C7.54551 9.48424 7.38843 9.45101 7.2296 9.45101C7.07077 9.45101 6.91369 9.48424 6.76846 9.54856C6.62323 9.61288 6.49307 9.70688 6.38633 9.8245L4.00114 12.3753C2.99535 13.4841 2.44679 14.9327 2.46581 16.4296C2.48484 17.9265 3.07004 19.3607 4.10368 20.4436C4.57948 20.9701 5.15589 21.3961 5.79892 21.6963C6.44196 21.9965 7.1386 22.165 7.84776 22.1917C7.89128 22.1927 7.93376 22.1936 7.97666 22.1936C8.66929 22.1896 9.35354 22.0417 9.98599 21.7593C10.6184 21.4769 11.1853 21.0661 11.6506 20.553L14.0358 18.0032C14.2605 17.7566 14.3851 17.435 14.3851 17.1013C14.3851 16.7677 14.2605 16.4461 14.0358 16.1995C13.929 16.0819 13.7989 15.9879 13.6536 15.9236C13.5084 15.8592 13.3513 15.826 13.1925 15.826C13.0337 15.826 12.8766 15.8592 12.7314 15.9236C12.5862 15.9879 12.456 16.0819 12.3493 16.1995ZM15.2282 8.55008C15.1215 8.43245 14.9914 8.33844 14.8462 8.27411C14.701 8.20978 14.544 8.17654 14.3852 8.17654C14.2264 8.17654 14.0694 8.20978 13.9242 8.27411C13.779 8.33844 13.6489 8.43245 13.5422 8.55008L8.77166 13.6497C8.54686 13.8961 8.42225 14.2175 8.42225 14.5511C8.42225 14.8846 8.54686 15.206 8.77166 15.4524C8.87829 15.5702 9.00842 15.6644 9.15366 15.7288C9.2989 15.7932 9.45603 15.8265 9.61491 15.8265C9.7738 15.8265 9.93093 15.7932 10.0762 15.7288C10.2214 15.6644 10.3515 15.5702 10.4582 15.4524L15.2282 10.3528C15.4531 10.1065 15.5779 9.78502 15.5779 9.45145C15.5779 9.11789 15.4531 8.79638 15.2282 8.55008ZM19.8962 3.55893C19.4306 3.01863 18.8558 2.58318 18.2096 2.2813C17.5634 1.97943 16.8605 1.818 16.1474 1.80766C15.4342 1.79732 14.727 1.9383 14.0723 2.22131C13.4176 2.50431 12.8304 2.92291 12.3493 3.44949L9.96447 6.00027C9.73948 6.24655 9.61473 6.56807 9.61473 6.90164C9.61473 7.23522 9.73948 7.55673 9.96447 7.80301C10.0711 7.92066 10.2013 8.01468 10.3465 8.07902C10.4916 8.14337 10.6487 8.17661 10.8075 8.17661C10.9663 8.17661 11.1234 8.14337 11.2686 8.07902C11.4138 8.01468 11.5439 7.92066 11.6506 7.80301L14.0358 5.25223C14.3029 4.95992 14.6297 4.72845 14.9941 4.57352C15.3586 4.41859 15.752 4.34382 16.1479 4.35429C16.5437 4.36476 16.9327 4.46021 17.2884 4.63417C17.6441 4.80814 17.9583 5.05656 18.2096 5.36258C18.7959 5.95111 19.1335 6.74251 19.1526 7.57303C19.1717 8.40356 18.8708 9.20964 18.3122 9.82449L15.9274 12.3753C15.7024 12.6216 15.5776 12.9431 15.5776 13.2766C15.5776 13.6102 15.7024 13.9317 15.9274 14.178C16.0341 14.2955 16.1643 14.3894 16.3094 14.4537C16.4546 14.5179 16.6116 14.5511 16.7704 14.5511C16.9292 14.5511 17.0862 14.5179 17.2314 14.4537C17.3765 14.3894 17.5067 14.2955 17.6134 14.178L19.9986 11.6282C21.0046 10.5192 21.5532 9.0705 21.5342 7.57342C21.5152 6.07633 20.9299 4.64198 19.8962 3.55893H19.8962Z" fill="#3B525C"/>
</svg>
