<svg width="193" height="113" viewBox="0 0 193 113" fill="none" xmlns="http://www.w3.org/2000/svg">
<g clip-path="url(#clip0_50361_103770)">
<g opacity="0.3">
<path d="M-69.8652 205.682C-70.5215 187.78 -70.0408 169.926 -68.5064 152.074C-67.8515 144.154 -66.8868 136.083 -63.3522 128.939C-54.3156 110.782 -31.5883 104.225 -11.1754 102.327C7.57624 100.518 26.5848 100.945 45.2907 103.615C63.7823 106.272 82.3466 111.003 100.919 109.312C119.558 107.603 138.888 97.3364 144.393 79.6225C147.632 69.067 145.449 57.4298 140.369 47.5344C135.307 37.7041 127.574 29.4162 119.411 21.8699C110.107 13.2289 99.7196 4.73432 95.4242 -7.18266C91.0047 -19.5554 94.5087 -34.2986 104.001 -43.2943C117.503 -56.1398 138.452 -55.8067 157.144 -57.3202C180.867 -59.1846 205.16 -65.666 223.091 -81.0763C241.004 -96.5517 251.076 -122.52 242.779 -144.756" stroke="white" stroke-miterlimit="10"/>
<path d="M-64.9435 208.006C-65.559 190.513 -65.1209 173.021 -63.528 155.643C-62.8201 147.919 -61.8855 139.996 -58.4289 133.082C-49.6495 115.273 -27.7147 108.647 -8.03413 106.383C-3.33579 105.841 1.33245 105.447 6.03612 105.182C19.6052 104.462 33.2133 104.918 46.6639 106.602C64.6854 108.824 82.714 113.138 100.822 111.29C118.93 109.442 137.224 99.2406 143.488 82.5136C145.836 76.1715 146.916 69.8152 146.347 63.3357C145.917 58.9134 144.926 54.4991 143.299 50.3229C142.553 48.3564 141.694 46.4895 140.686 44.5922C136.756 37.1156 130.961 30.2709 124.879 23.9205C124.291 23.308 123.685 22.6305 123.032 22.0353C113.576 12.3185 103.74 2.49284 99.8746 -10.165C96.2169 -22.3192 99.3028 -36.5324 108.55 -45.3933C121.694 -58.0039 141.893 -58.1012 159.87 -59.9147C161.299 -60.0826 162.729 -60.2504 164.092 -60.4009C185.542 -63.131 206.864 -69.9447 222.69 -84.3103C239.602 -99.5904 248.88 -124.859 240.433 -146.356" stroke="#F9F9F9" stroke-miterlimit="10"/>
<path d="M-59.9299 210.355C-60.5702 193.289 -60.0257 176.188 -58.4577 159.236C-57.7799 151.661 -56.7745 143.999 -53.4314 137.185C-44.8914 119.789 -23.8324 113.045 -4.80082 110.464C-0.269155 109.826 4.2501 109.401 8.7871 109.041C21.8739 108.1 35.1308 108.299 48.1947 109.597C65.6806 111.402 83.2215 115.216 100.865 113.211C118.508 111.206 135.765 101.07 142.688 85.2165C145.512 78.8189 147.568 72.6939 147.773 66.22C147.902 61.7897 147.436 57.2374 146.297 52.7929C145.748 50.7746 145.05 48.7258 144.203 46.6465C140.805 38.5418 134.815 30.9813 128.622 23.963C128.016 23.2854 127.41 22.6079 126.787 21.8653C117.197 11.138 107.894 -0.083799 104.543 -13.4346C101.563 -25.4182 104.314 -39.0537 113.335 -47.7146C126.12 -60.0905 145.587 -60.5529 162.832 -62.7316C164.196 -62.8821 165.541 -63.0977 166.887 -63.3134C187.456 -66.439 207.718 -73.5311 222.609 -87.7187C238.502 -102.869 246.938 -127.355 238.472 -148.149" stroke="#F4F4F4" stroke-miterlimit="10"/>
<path d="M-55.0056 212.683C-55.6051 196.025 -55.0855 179.351 -53.4945 162.743C-52.7636 155.363 -51.7883 147.849 -48.541 141.2C-40.2404 124.217 -20.0092 117.273 -1.62661 114.375C2.75612 113.707 7.09101 113.121 11.5446 112.713C24.2147 111.533 36.9716 111.445 49.6844 112.486C66.6347 113.874 83.6878 117.189 100.884 115.092C118.063 112.931 134.384 102.972 141.983 88.0578C145.266 81.5395 148.332 75.7761 149.359 69.2252C150.048 64.7871 150.124 60.1619 149.39 55.4013C149.02 53.2662 148.501 51.1005 147.833 48.9043C144.966 40.1715 138.782 31.8953 132.543 24.1918C131.919 23.4493 131.296 22.7067 130.655 21.899C120.978 10.0788 112.131 -2.30902 109.24 -16.548C106.843 -28.1962 109.421 -41.4362 118.131 -49.945C130.492 -62.0689 149.275 -62.9789 165.806 -65.4575C167.086 -65.6558 168.432 -65.8714 169.694 -66.1349C189.382 -69.6561 208.584 -77.0264 222.539 -91.0362C237.431 -105.991 244.991 -129.826 236.458 -149.833" stroke="#EEEEEE" stroke-miterlimit="10"/>
<path d="M-50.082 214.988C-50.7062 198.757 -50.1636 182.426 -48.5142 166.292C-47.7957 159.126 -46.7673 151.807 -43.6158 145.324C-35.5723 128.689 -16.1991 121.692 1.53463 118.477C5.75071 117.713 10.0022 117.08 14.2236 116.594C26.4771 115.174 38.7996 114.783 51.1434 115.502C67.5582 116.473 84.1413 119.353 100.855 117.035C117.587 114.782 133.068 104.836 141.129 90.847C144.953 84.256 148.948 78.8062 150.814 72.2435C152.062 67.7976 152.727 63.017 152.369 58.0879C152.244 55.8186 151.904 53.5361 151.266 51.1926C148.93 41.8317 142.551 32.8399 136.201 24.4686C135.56 23.661 134.919 22.8534 134.325 21.9634C124.515 9.13281 116.17 -4.5033 113.758 -19.5653C111.926 -30.9432 114.282 -43.7054 122.748 -52.0794C134.751 -63.9686 152.801 -65.2438 168.582 -68.1525C169.845 -68.4159 171.059 -68.597 172.322 -68.8604C191.129 -72.777 209.271 -80.4257 222.225 -94.2403C236.116 -109 242.882 -132.136 234.199 -151.404" stroke="#E9E9E9" stroke-miterlimit="10"/>
<path d="M-45.158 217.314C-45.7592 201.426 -45.2236 185.586 -43.5335 169.861C-42.7619 162.89 -41.7637 155.72 -38.7079 149.401C-30.9038 133.179 -12.3584 125.982 4.66098 122.468C8.71042 121.608 12.813 120.944 16.8678 120.363C28.7045 118.704 40.6104 118.074 52.5021 118.424C68.3814 118.977 84.4768 121.358 100.744 118.949C116.945 116.557 131.836 106.766 140.276 93.6553C144.624 86.9264 149.546 81.7901 152.186 75.233C153.993 70.7792 155.183 65.8606 155.248 60.6805C155.301 58.2945 155.122 55.83 154.663 53.3697C152.859 43.3808 146.351 33.6563 139.841 24.6996C139.183 23.8269 138.589 22.937 137.931 22.0643C127.968 8.15843 120.145 -6.66073 118.258 -22.6281C116.926 -33.7185 119.191 -46.0374 127.347 -54.2594C138.992 -65.914 156.31 -67.5542 171.424 -70.8452C172.621 -71.0913 173.801 -71.4026 174.997 -71.6487C192.923 -75.9608 210.006 -83.8876 222.007 -97.5896C234.813 -112.202 240.804 -134.574 232.084 -153.203" stroke="#E3E3E3" stroke-miterlimit="10"/>
<path d="M-40.2163 219.685C-40.8422 204.223 -40.2659 188.792 -38.5352 173.476C-37.7937 166.653 -36.7247 159.743 -33.7823 153.525C-26.2176 137.715 -8.54764 130.401 7.88841 126.552C11.7889 125.662 15.7072 124.837 19.6786 124.208C31.0154 122.262 42.5702 121.376 54.1108 121.47C69.5201 121.589 85.0624 123.487 100.799 120.939C116.536 118.39 130.836 108.756 139.506 96.4921C144.378 89.6252 150.311 84.8503 153.724 78.2986C156.091 73.837 157.805 68.7803 158.377 63.3972C158.608 60.8943 158.608 58.313 158.311 55.6708C156.972 45.0712 150.335 34.6139 143.78 24.9723C143.103 24.0346 142.492 23.0796 141.816 22.1419C131.785 7.20856 124.351 -8.75902 122.99 -25.6316C122.092 -36.4173 124.267 -48.2932 132.178 -56.3805C143.464 -67.8005 160.033 -69.8708 174.433 -73.4617C175.547 -73.7556 176.726 -74.0668 177.84 -74.3607C194.867 -79.1333 210.908 -87.2733 221.973 -100.798C233.779 -115.215 238.91 -136.87 230.106 -154.778" stroke="#DEDEDE" stroke-miterlimit="10"/>
<path d="M-35.2329 221.989C-35.8835 206.953 -35.2187 191.849 -33.5128 176.958C-32.7182 170.331 -31.6616 163.634 -28.815 157.581C-21.5728 142.136 -4.64737 134.67 11.0744 130.521C14.8083 129.536 18.5776 128.68 22.3646 127.89C33.2849 125.706 44.4053 124.515 55.5116 124.305C70.3855 124.008 85.4401 125.406 100.73 122.766C116.02 120.127 131.929 112.022 138.695 99.2141C145.362 93.269 150.969 87.813 155.138 81.2017C158.065 76.7322 160.32 71.6026 161.297 65.9035C161.708 63.2838 161.886 60.5857 161.684 57.7789C160.876 46.5515 154.045 35.3788 147.379 25.0696C146.75 24.0496 146.056 23.0468 145.427 22.0268C135.244 6.01836 128.266 -11.1147 127.496 -28.9098C127.05 -39.3257 129.099 -50.8886 136.8 -58.7111C147.663 -69.8793 163.566 -72.3319 177.234 -76.2876C178.347 -76.5815 179.378 -76.9232 180.474 -77.2822C196.686 -82.4674 211.602 -90.8683 221.732 -104.215C232.536 -118.437 236.875 -139.394 227.92 -156.564" stroke="#D8D8D8" stroke-miterlimit="10"/>
<path d="M-30.3061 224.303C-30.916 209.676 -30.276 194.998 -28.5294 180.516C-27.7473 174.101 -26.6553 167.535 -23.9045 161.647C-16.9016 146.615 -0.785939 139.014 14.2216 134.565C17.7889 133.484 21.3916 132.533 25.0298 131.713C35.5335 129.29 46.2373 127.86 56.9748 127.328C71.3133 126.614 85.898 127.578 100.706 124.717C115.531 121.921 130.968 114.15 137.846 102.011C145.155 96.1057 151.571 90.7854 156.597 84.2273C159.999 79.7021 162.927 74.465 164.28 68.5974C164.952 65.9087 165.226 63.0461 165.186 60.0574C164.909 48.2021 157.865 36.2491 151.105 25.3374C150.459 24.2523 149.747 23.1846 149.101 22.0995C138.784 5.08113 132.129 -13.1829 132.017 -31.9176C131.938 -42.0115 134.029 -53.1661 141.42 -60.8366C151.907 -71.8353 167.077 -74.6529 180.031 -78.9085C181.062 -79.2501 182.092 -79.5918 183.105 -79.9985C198.436 -85.5791 212.31 -94.1931 221.487 -107.427C231.273 -121.519 234.77 -141.695 225.797 -158.161" stroke="#D2D2D2" stroke-miterlimit="10"/>
<path d="M-25.3669 226.689C-26.0015 212.488 -25.3207 198.218 -23.5335 184.145C-22.716 177.861 -21.6187 171.572 -18.9813 165.784C-12.2177 151.165 3.0049 143.381 17.447 138.663C20.8654 137.552 24.3015 136.506 27.8386 135.572C37.8603 132.928 48.1953 131.177 58.4986 130.341C72.3018 129.21 86.3989 129.675 100.76 126.722C115.055 123.787 130.021 116.35 137.158 104.91C145.128 99.1099 152.352 93.9251 158.199 87.2901C162.161 82.757 165.613 77.3819 167.454 71.2462C168.305 68.4407 168.823 65.444 168.878 62.2907C169.132 49.8077 161.894 37.1394 155.089 25.543C154.425 24.3929 153.761 23.2428 153.097 22.0927C142.628 3.99938 136.381 -15.3476 136.842 -35.0697C137.066 -44.8245 139.197 -55.5707 146.343 -63.1065C156.473 -73.8709 170.911 -77.0534 183.116 -81.7388C184.063 -82.1283 185.027 -82.4526 185.975 -82.8421C200.425 -88.8179 213.24 -97.7101 221.417 -110.749C230.202 -124.647 232.84 -144.106 223.783 -159.852" stroke="#CDCDCD" stroke-miterlimit="10"/>
<path d="M-20.4367 228.991C-21.0483 215.133 -20.3923 201.289 -18.5645 187.624C-17.7594 181.553 -16.6267 175.395 -14.0673 169.837C-7.56073 155.565 6.86978 147.712 20.58 142.629C23.8319 141.422 27.1191 140.345 30.4896 139.316C40.0948 136.433 49.9301 134.395 59.9301 133.221C73.198 131.673 86.8076 131.639 100.704 128.529C114.534 125.438 129.029 118.334 136.277 107.564C144.955 101.786 152.94 96.8192 159.543 90.1247C164.063 85.5837 168.039 80.0706 170.321 73.7492C171.351 70.8269 172.048 67.7134 172.264 64.3783C173.049 51.2675 165.617 37.8841 158.7 25.6202C158.018 24.4051 157.336 23.19 156.655 21.9749C146.1 2.78951 140.046 -17.6536 141.312 -38.2847C141.857 -47.6352 144.011 -58.0382 150.912 -65.4394C160.684 -75.9693 174.373 -79.5818 185.863 -84.5669C186.744 -84.9391 187.674 -85.3936 188.555 -85.7657C202.126 -92.1368 213.881 -101.307 221.105 -114.234C228.872 -128.001 230.735 -146.697 221.575 -161.787" stroke="#C7C7C7" stroke-miterlimit="10"/>
<path d="M-15.4517 231.305C-16.0879 217.872 -15.3913 204.437 -13.4573 191.163C-12.5991 185.287 -11.5444 179.36 -9.03288 173.885C-2.76557 160.025 10.7721 151.989 23.8515 146.654C26.9368 145.352 30.123 144.162 33.2791 143.12C42.4678 139.998 51.8866 137.722 61.4525 136.243C74.2506 134.261 87.3727 133.728 100.757 130.544C114.141 127.361 128.128 120.462 135.523 110.489C144.843 104.752 153.636 99.9206 161.095 93.2793C166.176 88.7304 170.693 83.1445 173.379 76.5071C174.588 73.468 175.464 70.2378 175.776 66.7381C177.092 52.9997 169.531 38.8839 162.437 25.9699C161.738 24.6898 161.038 23.4097 160.339 22.1295C149.65 1.93445 143.837 -19.6871 145.843 -41.2098C146.69 -50.2213 148.95 -60.2333 155.542 -67.4827C164.89 -77.7609 177.912 -81.7555 188.737 -87.1227C189.6 -87.5599 190.464 -87.9971 191.263 -88.417C203.952 -95.1833 214.649 -104.632 220.937 -117.381C227.638 -130.936 228.708 -148.934 219.464 -163.303" stroke="#C2C2C2" stroke-miterlimit="10"/>
<path d="M-10.5285 233.62C-11.124 220.595 -10.4521 207.586 -8.47746 194.72C-7.64941 188.992 -6.54167 183.26 -4.12584 177.95C1.90223 164.503 14.6303 156.332 27.0434 150.615C29.9799 149.282 32.9995 147.997 35.9891 146.86C44.6959 143.516 53.7461 140.918 62.9433 139.119C75.2061 136.72 87.8585 135.752 100.76 132.347C113.68 129.008 127.13 122.459 134.768 113.121C144.795 107.406 154.415 102.775 162.629 96.0745C168.268 91.5177 173.375 85.7765 176.484 78.8883C177.937 75.7152 178.927 72.3855 179.417 68.7691C181.198 54.4203 173.508 39.5721 166.386 26.0386C165.67 24.6935 164.953 23.3483 164.301 21.9859C153.46 0.716172 147.775 -21.984 150.634 -44.4979C151.701 -53.2182 154.085 -62.7742 160.366 -69.8718C169.356 -79.9156 181.647 -84.275 191.739 -90.007C192.538 -90.4269 193.318 -90.9119 194.099 -91.3968C205.908 -98.5583 215.546 -108.285 220.9 -120.856C226.6 -134.217 226.812 -151.499 217.482 -165.147" stroke="#BCBCBC" stroke-miterlimit="10"/>
<path d="M-5.59025 235.989C-6.21048 223.391 -5.4501 210.707 -3.4826 198.332C-2.60148 192.8 -1.50619 187.28 0.748464 182.152C6.5196 169.053 18.4381 160.747 30.1551 154.795C32.925 153.367 35.7958 152.052 38.6844 150.801C46.9747 147.219 55.5908 144.317 64.3538 142.214C76.0815 139.398 88.2465 137.931 100.702 134.435C113.091 130.956 124.759 123.275 133.902 116.12C143.403 108.731 155.017 106.015 164.005 99.319C170.203 94.7543 175.833 88.8751 179.383 81.8012C181.015 78.5114 182.183 75.0649 182.834 71.2667C185.146 56.2903 177.262 40.7271 170.029 26.5263C169.294 25.1161 168.625 23.6887 167.891 22.2786C156.915 -0.000724209 151.34 -23.8446 155.136 -47.3019C156.505 -55.6832 158.977 -64.9134 164.984 -71.729C173.616 -81.5386 185.157 -86.3278 194.536 -92.3595C195.251 -92.8271 196.032 -93.312 196.729 -93.8447C207.641 -101.466 216.237 -111.406 220.59 -123.783C225.273 -137.014 224.709 -153.532 215.296 -166.46" stroke="#B7B7B7" stroke-miterlimit="10"/>
<path d="M-0.665122 238.303C-1.26229 226.048 -0.509055 213.855 1.48137 201.823C2.35007 196.503 3.48072 191.114 5.63969 186.151C11.1716 173.464 22.2152 165.04 33.266 158.707C35.8694 157.183 38.5737 155.772 41.2958 154.426C49.1698 150.605 57.3695 147.465 65.7639 145.041C76.9565 141.808 88.634 139.842 100.625 136.19C112.568 132.62 123.912 125.302 133.083 118.768C143.375 111.449 155.649 108.838 165.475 102.13C172.232 97.5579 178.386 91.5407 182.359 84.2161C184.187 80.8745 185.564 77.1639 186.262 73.2835C189.106 57.6796 181.027 41.4015 173.683 26.5334C172.931 25.0583 172.244 23.5659 171.557 22.0735C160.496 -1.29761 154.882 -26.3155 159.631 -50.651C161.237 -58.6761 163.816 -67.5155 169.578 -74.1965C177.786 -83.7545 188.662 -88.9258 197.291 -95.3872C197.989 -95.9199 198.62 -96.4353 199.318 -96.968C209.415 -105.002 216.886 -115.203 220.305 -127.402C223.987 -140.438 222.565 -156.241 213.067 -168.449" stroke="#B1B1B1" stroke-miterlimit="10"/>
<path d="M4.25076 240.629C3.62888 228.799 4.42282 217.014 6.45387 205.391C7.37564 200.266 8.49385 195.09 10.5395 190.227C15.8322 177.952 26.0664 169.393 36.4689 162.743C38.9235 161.189 41.4613 159.683 44.0168 158.241C51.4745 154.181 59.2402 150.737 67.2005 148.009C77.858 144.36 89.0483 141.895 100.527 138.168C112.006 134.442 123.045 127.554 132.161 121.592C143.243 114.344 156.194 111.902 166.859 105.183C174.109 100.62 180.852 94.4474 185.265 86.9371C187.272 83.4787 188.828 79.6514 189.687 75.5892C193.061 59.3578 184.788 42.3648 177.399 26.8122C176.629 25.2721 175.924 23.7147 175.22 22.1573C164.024 -2.22321 158.354 -28.4802 164.205 -53.6634C165.966 -61.3801 168.733 -69.781 174.251 -76.3275C182.084 -85.7163 192.228 -91.2523 200.144 -98.0134C200.776 -98.5287 201.39 -99.1092 202.022 -99.6246C211.238 -108.054 217.651 -118.532 220.118 -130.619C222.8 -143.46 220.502 -158.613 210.92 -170.101" stroke="#ABABAB" stroke-miterlimit="10"/>
<path d="M9.25708 242.986C8.61047 231.582 9.42739 220.14 11.5168 208.99C12.4084 204.013 13.5797 199.032 15.5473 194.399C20.5177 182.488 29.9426 173.795 39.7146 166.893C42.0027 165.243 44.374 163.641 46.8462 162.152C53.8044 157.806 61.1715 154.188 68.8288 151.121C79.0168 147.038 89.672 144.157 100.669 140.209C111.683 136.326 122.435 129.932 131.562 124.525C143.469 117.478 157.062 115.076 168.482 108.297C176.274 103.661 183.641 97.4636 188.459 89.6375C190.71 86.0451 192.379 82.1183 193.399 77.8744C197.304 61.0155 188.837 43.3075 181.336 27.0878C180.614 25.4654 179.826 23.8603 179.104 22.2379C167.757 -3.217 161.899 -30.6784 168.918 -56.7266C170.898 -64.1522 173.855 -72.1146 179.063 -78.5094C186.537 -87.664 195.885 -93.5475 203.135 -100.69C203.683 -101.254 204.297 -101.834 204.846 -102.397C213.183 -111.221 218.537 -121.978 220.069 -133.888C221.733 -146.599 218.66 -160.989 208.994 -171.756" stroke="#A6A6A6" stroke-miterlimit="10"/>
<path d="M14.1809 245.308C13.5751 234.312 14.3672 223.295 16.4972 212.553C17.4419 207.772 18.6008 203.003 20.4551 198.47C25.1863 186.972 33.8021 178.144 42.8426 170.877C44.9643 169.132 47.2523 167.482 49.4925 165.915C56.0345 161.33 62.9676 157.408 70.191 154.038C79.844 149.538 90.012 146.157 100.562 142.118C111.047 138.096 121.512 132.197 130.631 127.28C143.299 120.451 157.581 118.006 169.839 111.216C178.189 106.572 186.08 100.236 191.339 92.2242C193.768 88.5151 195.615 84.4716 196.732 80.0632C201.102 62.5941 192.571 44.1368 184.893 27.2672C184.154 25.5798 183.414 23.8924 182.674 22.2051C171.193 -4.25911 165.113 -33.055 173.335 -59.838C175.534 -66.9726 178.614 -74.4792 183.578 -80.7396C190.695 -89.66 199.31 -95.9081 205.895 -103.433C206.426 -104.061 206.909 -104.607 207.44 -105.235C214.896 -114.454 219.192 -125.489 219.79 -137.221C220.389 -149.721 216.523 -163.413 206.772 -173.46" stroke="#A0A0A0" stroke-miterlimit="10"/>
<path d="M19.1085 247.617C18.478 237.046 19.3763 226.42 21.4637 216.038C22.396 211.47 23.5901 206.832 25.3665 202.528C29.8586 191.442 37.5821 182.431 46.0577 174.896C48.096 173.103 50.1521 171.375 52.2259 169.712C58.3517 164.888 64.8509 160.663 71.7058 156.971C80.8239 152.055 90.5047 148.176 100.591 143.98C110.629 139.867 120.789 134.396 129.853 130.052C143.382 123.553 158.336 121.002 171.301 114.233C180.21 109.581 188.624 103.108 194.305 94.8453C196.913 91.0195 198.939 86.8593 200.217 82.2691C205.117 64.1726 196.392 45.0004 188.687 27.5115C187.929 25.7591 187.172 24.0067 186.414 22.2544C174.847 -5.3014 168.413 -35.3972 177.969 -62.9495C180.322 -69.7758 183.657 -76.8613 188.311 -82.97C195.004 -91.639 202.936 -98.3341 208.807 -106.158C209.273 -106.769 209.738 -107.38 210.12 -108.039C216.697 -117.653 219.935 -128.966 219.532 -140.504C219.132 -152.809 214.408 -165.786 204.572 -175.113" stroke="#9B9B9B" stroke-miterlimit="10"/>
<path d="M24.025 249.937C23.4175 239.709 24.291 229.509 26.4368 219.6C27.4044 215.161 28.6038 210.801 30.2668 206.597C34.5022 195.858 41.4343 186.778 49.1787 178.878C51.0506 176.989 52.9403 175.166 54.9308 173.455C60.575 168.41 66.7236 163.929 73.1446 159.933C81.7278 154.601 90.9216 150.222 100.561 145.935C110.135 141.666 119.961 136.772 129.064 132.835C143.455 126.667 159.015 124.025 172.8 117.18C182.268 112.52 191.271 105.891 197.393 97.4429C200.179 93.5003 202.449 89.2061 203.822 84.4514C209.253 65.7275 200.334 45.8405 192.517 27.6844C191.742 25.8671 190.967 24.0498 190.275 22.2802C178.574 -6.28484 171.685 -37.7933 182.675 -66.0021C185.23 -72.6025 188.707 -79.1674 193.133 -85.0766C199.469 -93.5116 206.671 -100.571 211.793 -108.825C212.175 -109.484 212.557 -110.143 212.939 -110.801C218.618 -120.876 220.833 -132.336 219.461 -143.827C218.043 -156.002 212.545 -168.216 202.625 -176.823" stroke="#959595" stroke-miterlimit="10"/>
<path d="M29.0325 252.298C28.4003 242.495 29.3145 232.703 31.5009 223.202C32.4561 218.976 33.7085 214.811 35.2582 210.707C39.2546 200.38 45.3601 191.1 52.4087 182.965C54.1142 180.981 55.8552 179.127 57.6792 177.321C62.9074 172.037 68.6221 167.252 74.6748 162.936C82.7232 157.187 91.4476 152.374 100.623 147.931C109.733 143.505 119.158 139.205 128.32 135.741C143.523 129.986 159.72 127.106 174.361 120.314C184.388 115.646 193.931 108.944 200.458 100.18C203.506 96.1688 205.871 91.7101 207.34 86.791C213.301 67.4396 204.188 46.8378 196.26 28.0147C195.467 26.1324 194.692 24.3151 193.965 22.4156C182.112 -7.22374 174.751 -40.2098 187.194 -69.0101C189.968 -75.3196 193.55 -81.4939 197.75 -87.2037C203.728 -95.4046 210.181 -102.894 214.589 -111.448C214.972 -112.106 215.271 -112.813 215.57 -113.519C220.435 -124.006 221.526 -135.727 219.22 -147.04C216.802 -159.021 210.446 -170.52 200.441 -178.408" stroke="#909090" stroke-miterlimit="10"/>
<path d="M33.9557 254.615C32.2433 227.948 42.8662 201.232 60.3913 181.06C77.8988 160.823 101.94 146.81 127.456 138.472C143.491 133.195 160.323 130.077 175.719 123.225C191.115 116.374 205.617 104.947 210.738 88.9557C217.23 68.9769 207.922 47.6604 199.949 28.1529C186.8 -3.93173 176.695 -41.0725 191.741 -72.1625C199.24 -87.6664 212.388 -100.199 218.229 -116.381C226.434 -138.834 217.866 -166.201 198.27 -180.202" stroke="#8A8A8A" stroke-miterlimit="10"/>
<path d="M384.492 91.5069C375.145 106.772 364.882 121.51 353.816 135.621C348.911 141.882 343.642 148.099 336.733 152.162C319.087 162.488 296.397 155.548 278.24 146.151C261.464 137.439 245.771 126.762 231.529 114.443C217.371 102.172 204.48 88.0984 187.871 79.4817C171.244 70.7998 149.341 68.8259 135.003 80.7251C126.455 87.8082 121.903 98.7301 120.746 109.734C119.589 120.737 121.548 131.826 124.193 142.594C127.264 154.928 131.281 167.641 128.369 179.948C125.302 192.714 114.215 203.126 101.293 205.491C82.8869 208.886 65.4622 197.268 48.9132 188.356C27.919 177.052 4.00941 169.246 -19.639 172.488C-43.2218 175.713 -65.994 192.008 -71.253 215.073" stroke="#8A8A8A" stroke-miterlimit="10"/>
<path d="M381.61 86.8232C372.49 101.889 362.353 116.315 351.329 130.066C346.454 136.18 341.233 142.314 334.503 146.26C320.931 154.251 304.295 152.004 289.061 146.38C284.912 144.819 280.858 143.093 277.032 141.168C260.481 133.025 244.929 122.869 230.829 111.072C216.83 99.3874 203.998 85.7866 187.608 77.461C178.407 72.8297 167.725 69.9885 157.495 70.1045C148.533 70.2348 139.847 72.6699 132.935 78.2722C131.67 79.3058 130.553 80.37 129.454 81.4994C122.736 88.589 119.133 98.3515 118.051 108.077C117.716 111.243 117.578 114.356 117.589 117.499C117.713 125.718 119.023 133.902 120.644 141.935C123.177 154.621 126.276 167.577 122.805 179.892C119.381 192.125 108.783 202.267 96.1405 204.629C78.1634 208.051 61.1479 197.163 44.9904 188.916C43.693 188.28 42.4611 187.627 41.1637 186.991C21.6723 177.597 -0.0255697 171.722 -21.2975 175.176C-43.9342 178.78 -65.622 194.929 -70.3973 217.448" stroke="#909090" stroke-miterlimit="10"/>
<path d="M378.749 82.2118C369.773 97.0311 359.779 111.21 348.881 124.649C344.036 130.615 338.91 136.585 332.229 140.448C318.901 148.306 302.633 146.38 287.654 141.178C283.606 139.73 279.588 138.135 275.797 136.339C259.519 128.683 244.126 119.114 230.037 107.873C216.114 96.7269 203.357 83.6646 187.205 75.6953C177.706 71.0027 166.708 68.0348 156.162 68.0244C146.951 68.011 137.967 70.385 130.727 76.0743C129.462 77.108 128.214 78.2069 127.115 79.3364C120.152 86.561 116.423 96.637 115.215 106.676C114.832 109.924 114.646 113.12 114.627 116.412C114.608 124.878 115.709 133.329 117.019 141.514C119.034 154.617 121.113 167.704 117.165 180.076C113.385 191.774 103.193 201.6 90.9135 204.005C73.3474 207.389 56.7411 197.232 40.9929 189.715C39.7787 189.127 38.499 188.556 37.2193 187.985C18.2381 179.434 -2.68724 174.335 -23.0963 178.119C-44.7868 182.103 -65.3902 198.106 -69.6817 220.079" stroke="#959595" stroke-miterlimit="10"/>
<path d="M375.888 77.6013C367.121 92.1557 357.187 106.039 346.415 119.165C341.6 124.983 336.505 130.805 330.02 134.617C316.936 142.34 300.972 140.754 286.314 135.956C282.301 134.639 278.384 133.157 274.693 131.475C258.64 124.388 243.39 115.341 229.46 104.687C215.613 94.0801 202.998 81.5396 187 73.8792C177.138 69.1426 165.89 66.031 154.963 65.9115C145.52 65.8195 136.155 68.0845 128.635 73.7779C127.304 74.829 126.056 75.9279 124.826 77.0921C117.552 84.4686 113.763 94.8403 112.429 105.193C111.999 108.523 111.783 111.867 111.764 115.159C111.667 123.856 112.493 132.588 113.445 141.008C114.988 154.446 116.084 167.793 111.576 180.173C107.523 191.384 97.8195 200.941 85.7548 203.359C68.6175 206.769 52.4207 197.343 37.1297 190.475C35.9333 189.952 34.7369 189.429 33.4749 188.923C14.9864 181.151 -5.21394 176.909 -24.6766 181.073C-45.4029 185.501 -64.9394 201.293 -68.7471 222.718" stroke="#9B9B9B" stroke-miterlimit="10"/>
<path d="M373.076 72.9668C364.453 87.2732 354.728 100.892 343.999 113.656C339.279 119.309 334.214 124.983 327.777 128.712C314.938 136.3 299.343 135.037 284.94 130.661C281.028 129.457 277.146 128.105 273.492 126.554C257.646 119.972 242.621 111.495 228.767 101.38C215.08 91.3608 202.458 79.312 186.698 72.0085C176.49 67.2934 164.975 63.9729 153.732 63.7269C144.039 63.4912 134.31 65.7124 126.528 71.475C125.114 72.4781 123.818 73.6595 122.606 74.8889C115.022 82.4172 111.173 93.0844 109.713 103.75C109.235 107.163 108.971 110.589 108.921 114.028C108.681 122.973 109.281 131.905 109.958 140.607C110.982 154.462 111.19 167.903 106.139 180.356C101.73 191.031 92.349 200.223 80.63 202.621C63.9874 206.04 48.1168 197.297 33.2354 191.159C32.0567 190.702 30.8603 190.179 29.6816 189.721C11.7037 182.793 -7.7238 179.326 -26.3054 183.886C-46.0852 188.694 -64.5191 204.404 -67.9262 225.233" stroke="#A0A0A0" stroke-miterlimit="10"/>
<path d="M370.191 68.2862C361.711 82.3446 352.112 95.6496 341.509 108.101C336.819 113.606 331.784 119.132 325.544 122.809C312.949 130.263 297.723 129.321 283.575 125.368C279.699 124.294 275.901 122.99 272.299 121.634C256.744 115.605 241.861 107.651 228.084 98.075C214.473 88.5953 201.927 77.086 186.386 70.0742C175.816 65.3153 164.068 61.9164 152.492 61.4788C142.484 61.1167 132.523 63.2593 124.478 69.0911C122.999 70.1115 121.703 71.2929 120.425 72.5396C112.531 80.2196 108.622 91.1822 107.036 102.16C106.51 105.656 106.216 109.23 106.101 112.686C105.699 121.813 106.107 131.075 106.475 139.929C106.961 154.135 106.234 167.754 100.641 180.28C96.0241 190.45 87.0014 199.408 75.5625 201.801C59.3488 205.246 43.8877 197.234 29.3981 191.763C28.2194 191.305 27.1241 190.895 25.9631 190.503C8.49583 184.42 -10.1588 181.727 -27.8771 186.619C-46.6926 191.87 -64.0594 207.368 -66.965 227.715" stroke="#A6A6A6" stroke-miterlimit="10"/>
<path d="M367.326 63.6782C359.055 77.4713 349.534 90.5457 339.057 102.684C334.415 108.106 329.458 113.402 323.283 117.061C310.934 124.38 296.076 123.761 282.183 120.23C278.408 119.269 274.645 118.096 271.079 116.871C255.732 111.346 241.008 103.979 227.391 94.9905C213.856 86.0502 201.404 75.1456 186.084 68.4255C175.149 63.6229 163.086 60.0976 151.261 59.5163C141.02 59.0757 130.678 61.1091 122.371 67.0102C120.892 68.0305 119.465 69.2466 118.121 70.5106C109.983 78.3251 105.948 89.6004 104.237 100.891C103.68 104.534 103.321 108.126 103.175 111.73C102.63 121.104 102.829 130.631 102.839 139.719C102.871 154.325 101.256 168.038 94.9714 180.607C90.1653 190.338 81.3995 198.947 70.3063 201.319C54.5216 204.791 39.4701 197.51 25.3722 192.704C24.2769 192.294 23.1337 191.967 22.056 191.622C5.0816 186.318 -12.848 184.483 -29.6198 189.754C-47.4886 195.384 -63.7707 210.735 -66.1924 230.534" stroke="#ABABAB" stroke-miterlimit="10"/>
<path d="M364.461 59.0642C356.333 72.6093 347.004 85.3532 336.587 97.1959C331.976 102.47 327.114 107.6 321.053 111.16C308.882 118.361 294.441 117.982 280.822 114.938C277.082 114.108 273.42 113.048 269.89 111.953C254.767 106.998 240.251 100.136 226.71 91.6868C213.335 83.3339 200.876 72.9208 185.775 66.4924C174.496 61.7113 162.165 57.9771 149.959 57.2867C139.468 56.7024 128.763 58.6919 120.176 64.5969C118.63 65.6346 117.138 66.868 115.795 68.132C107.346 76.0981 103.233 87.6036 101.348 99.2895C100.744 103.015 100.42 106.737 100.144 110.376C99.4546 119.998 99.4268 129.725 99.1615 139.095C98.6749 154.117 96.1713 167.924 89.2792 180.583C84.3313 189.792 75.8225 198.054 65.0449 200.552C49.7547 204.033 35.0294 197.435 21.3411 193.361C20.2635 193.016 19.2036 192.737 18.0604 192.41C1.59653 187.949 -15.5779 186.824 -31.451 192.556C-48.3556 198.631 -63.5706 213.77 -65.5085 233.021" stroke="#B1B1B1" stroke-miterlimit="10"/>
<path d="M361.645 54.4238C353.727 67.703 344.458 80.1504 334.167 91.6794C329.586 96.8053 324.755 101.788 318.825 105.312C306.899 112.379 292.826 112.321 279.463 109.699C275.824 108.983 272.198 108.053 268.75 107.006C253.836 102.557 239.48 96.2814 226.098 88.4203C212.799 80.6072 200.435 70.7992 185.554 64.6628C173.911 59.8382 161.349 56.0257 148.809 55.1438C138.003 54.4331 127.001 56.3613 118.152 62.3352C116.541 63.3901 115.048 64.6235 113.639 65.9047C104.881 74.0221 100.708 85.8224 98.6967 97.8205C98.0447 101.629 97.6727 105.433 97.3663 109.219C96.5994 119.071 96.2969 129.079 95.6559 138.618C94.6323 153.991 91.3241 167.94 83.8243 180.689C78.669 189.392 70.4351 197.371 60.0032 199.848C45.1423 203.355 30.8267 197.489 17.5782 193.997C16.5183 193.718 15.4762 193.504 14.4163 193.224C-1.55454 189.543 -17.9381 189.258 -32.9478 195.321C-48.9057 201.775 -62.9524 216.813 -64.4898 235.468" stroke="#B7B7B7" stroke-miterlimit="10"/>
<path d="M358.739 49.7444C350.965 62.7745 341.84 74.973 331.675 86.1879C327.189 91.1482 322.388 95.9821 316.59 99.4717C304.909 106.403 291.205 106.668 278.097 104.468C274.494 103.882 270.969 103.065 267.557 102.149C252.934 98.2524 238.72 92.4997 225.349 85.1959C212.127 77.9227 199.774 68.6723 185.179 62.8106C173.19 58.0079 160.36 53.987 147.506 52.9787C136.468 52.1896 125.15 53.9913 115.974 60.0512C114.297 61.1233 112.739 62.3738 111.282 63.7375C102.28 71.9886 97.9807 84.1006 95.844 96.4103C95.1442 100.3 94.7421 104.252 94.3701 108.055C93.4597 118.154 92.9481 128.426 92.0146 138.181C90.4719 153.969 86.3591 168.059 78.1683 180.85C72.9546 189.078 64.9124 196.726 54.7608 199.199C40.3114 202.667 26.4056 197.532 13.5669 194.771C12.5248 194.557 11.5483 194.326 10.5239 194.177C-4.93607 191.34 -20.6121 191.847 -34.6749 198.289C-49.6682 205.186 -62.6477 220.011 -63.7668 238.134" stroke="#BCBCBC" stroke-miterlimit="10"/>
<path d="M355.869 45.1302C348.238 57.9115 339.239 69.7959 329.2 80.6968C324.745 85.5089 319.974 90.1945 314.289 93.5839C302.853 100.38 289.453 100.984 276.666 99.1891C273.164 98.7161 269.675 98.0302 266.299 97.2444C251.883 93.8526 237.894 88.6702 224.6 81.9062C211.538 75.2207 199.196 66.5276 184.821 60.958C172.487 56.1772 159.39 51.9477 146.155 50.8305C134.867 49.8977 123.186 51.6554 113.813 57.7667C112.137 58.8387 110.514 60.1064 108.991 61.4873C99.6785 69.8894 95.3195 82.2957 93.0571 94.9171C92.375 98.8721 91.8594 102.923 91.4574 106.874C90.4035 117.219 89.665 127.69 88.3913 137.743C86.3116 153.881 81.3944 168.113 72.5303 181.01C67.1928 188.782 59.3421 196.099 49.5363 198.549C35.5162 202.043 22.0202 197.64 9.57358 195.545C8.61478 195.379 7.59041 195.23 6.63161 195.064C-8.31746 193.071 -23.2203 194.352 -36.4019 201.19C-50.5139 208.483 -62.3429 223.142 -62.9782 240.717" stroke="#C2C2C2" stroke-miterlimit="10"/>
<path d="M353.057 40.4977C345.636 53.0128 336.781 64.6485 326.784 75.1877C322.36 79.8515 317.685 84.3717 312.131 87.7261C300.94 94.387 287.909 95.3129 275.377 93.9401C271.911 93.5976 268.522 93.0249 265.182 92.3696C250.992 89.5477 237.145 84.8875 224.011 78.7111C211.026 72.5653 198.777 64.4773 184.605 59.1344C171.908 54.3102 158.496 49.9548 145.011 48.694C133.474 47.6177 121.43 49.3313 111.777 55.4461C110.035 56.5354 108.347 57.8203 106.824 59.201C97.2017 67.7542 92.7825 80.4548 90.3943 93.3878C89.6821 97.4902 89.1011 101.558 88.6512 105.591C87.4538 116.183 86.5062 126.918 84.9402 137.187C82.4069 153.723 76.703 168.161 67.0646 181.052C61.6031 188.366 53.9919 195.27 44.4841 197.781C30.9588 201.284 17.7894 197.564 5.75245 196.2C4.81141 196.099 3.87036 195.998 2.86374 195.915C-11.5267 194.683 -25.7042 196.821 -38.0047 204.055C-51.17 211.726 -61.914 226.237 -62.0655 243.263" stroke="#C7C7C7" stroke-miterlimit="10"/>
<path d="M350.172 35.8795C342.894 48.1458 334.165 59.4677 324.295 69.6931C319.9 74.2088 315.256 78.5808 309.815 81.835C298.869 88.3608 286.189 89.5435 273.931 88.6578C270.548 88.3633 267.213 87.9862 263.908 87.4614C250.009 85.192 236.304 81.054 223.247 75.4171C210.338 69.8108 198.118 62.3451 184.279 57.1943C171.238 52.3919 157.576 47.8932 143.758 46.4409C131.924 45.3036 119.565 46.8908 109.65 53.0742C107.842 54.1807 106.153 55.4655 104.5 56.8807C94.5677 65.585 90.0884 78.5799 87.5744 91.8245C86.8144 96.0091 86.2033 100.224 85.7055 104.34C84.4302 115.16 83.1903 126.111 81.2663 136.614C78.1305 153.518 71.7711 168.128 61.4419 181.06C55.922 187.9 48.4368 194.49 39.2748 196.98C26.1788 200.509 13.4846 197.502 1.77412 196.821C0.850821 196.786 -0.0724938 196.75 -0.995791 196.714C-14.8754 196.327 -28.3631 199.191 -39.7825 206.82C-51.9834 214.935 -61.6426 229.298 -61.328 245.71" stroke="#CDCDCD" stroke-miterlimit="10"/>
<path d="M347.274 31.223C340.206 43.2234 331.555 54.3139 321.811 64.2257C317.529 68.6411 312.915 72.865 307.588 76.0191C296.887 82.4098 284.576 83.9143 272.556 83.3853C269.208 83.2212 265.974 82.9573 262.77 82.5456C249.079 80.7807 235.534 77.2299 222.636 72.1804C209.822 67.1788 197.679 60.2527 184.06 55.3937C170.673 50.6132 156.744 45.906 142.612 44.3275C130.528 43.0466 117.871 44.5725 107.629 50.842C105.756 51.9657 104.001 53.2677 102.348 54.6828C92.189 63.586 87.5664 76.8273 84.9267 90.3835C84.1188 94.6502 83.4598 98.9475 82.932 103.21C81.4954 114.212 80.0642 125.492 77.8479 136.211C74.193 153.53 67.1125 168.329 56.0092 181.255C50.4487 187.686 43.0717 193.897 34.2556 196.366C21.5887 199.921 9.30433 197.645 -1.94859 197.612C-2.85413 197.642 -3.71182 197.589 -4.59965 197.683C-17.9862 198.074 -30.6831 201.777 -41.2214 209.802C-52.4756 218.296 -61.0501 232.511 -60.234 248.439" stroke="#D2D2D2" stroke-miterlimit="10"/>
<path d="M344.4 26.5936C337.476 38.3454 329.016 49.1049 319.332 58.7204C315.082 62.9878 310.497 67.0636 305.302 70.1828C294.845 76.4385 282.903 78.2648 271.204 78.1403C267.958 78.0893 264.759 77.9558 261.591 77.6745C248.125 76.4793 234.788 73.433 221.967 68.9229C209.295 64.4433 197.115 58.1565 183.764 53.5067C169.966 48.7653 155.836 43.8324 141.34 42.2102C129.006 40.7858 115.987 42.2677 105.465 48.5408C103.526 49.6817 101.772 50.9836 100.071 52.4811C89.6021 61.5353 84.9193 75.0709 82.1539 88.9387C81.2982 93.2876 80.6092 97.7323 80.0158 102.012C78.4357 113.261 76.7954 124.805 74.2213 135.757C70.0951 153.408 62.329 168.527 50.3683 181.399C44.7671 187.421 37.564 193.236 28.9626 195.718C16.7904 199.282 4.83247 197.689 -6.01076 198.386C-6.833 198.464 -7.73853 198.493 -8.56076 198.571C-21.4365 199.805 -33.3605 204.282 -43.0178 212.702C-53.3076 221.639 -60.8151 235.642 -59.5809 251.039" stroke="#D8D8D8" stroke-miterlimit="10"/>
<path d="M341.585 21.9509C334.888 33.5021 326.489 43.9654 316.979 53.1849C312.758 57.3042 308.27 61.2146 303.188 64.2338C292.976 70.3546 281.338 72.5199 269.96 72.7998C266.814 72.8619 263.651 72.8588 260.518 72.7079C247.26 72.017 234.083 69.5577 221.404 65.5695C208.808 61.6291 196.657 55.9642 183.592 51.5889C169.449 46.8692 155.051 41.7278 140.241 39.9795C127.675 38.4767 114.275 39.8496 103.557 46.1741C101.618 47.3149 99.7328 48.6513 97.9662 50.166C87.1875 59.3712 82.4446 73.2012 79.5535 87.3806C78.65 91.8116 77.9787 96.3211 77.2896 100.765C75.5661 112.261 73.6335 124.021 70.8326 135.172C66.1874 153.238 57.7835 168.594 44.9478 181.347C39.306 186.96 32.2112 192.397 23.9555 194.857C12.2125 198.447 0.664182 197.584 -9.78711 198.947C-10.6093 199.025 -11.4138 199.167 -12.2183 199.31C-24.6666 201.34 -35.8654 206.673 -44.5939 215.407C-53.9372 224.722 -60.36 238.576 -58.6421 253.425" stroke="#DEDEDE" stroke-miterlimit="10"/>
<path d="M338.711 17.3494C332.158 28.6522 323.885 38.8019 314.519 47.7732C310.328 51.7444 305.87 55.5069 300.919 58.4912C290.952 64.477 279.683 66.9641 268.56 67.6656C265.45 67.8581 262.388 67.968 259.291 67.9476C246.324 67.8088 233.289 65.8712 220.639 62.5046C208.137 59.1685 196.063 54.0429 183.2 49.894C168.646 45.2135 153.999 39.9289 138.921 37.9719C126.041 36.3429 112.326 37.5893 101.363 44.0478C99.3587 45.2058 97.4734 46.5422 95.6413 48.074C84.5528 57.4303 79.6842 71.5718 76.7329 86.0455C75.7994 90.6239 75.0802 95.2155 74.3256 99.6768C72.4586 111.419 70.317 123.443 67.1582 134.827C61.994 153.309 53.0358 168.949 39.325 181.583C33.6426 186.787 26.7038 191.764 18.746 194.284C7.41449 197.836 -3.72414 197.703 -13.7658 199.796C-14.5703 199.939 -15.357 200.146 -16.1437 200.354C-28.0158 203.21 -38.4417 209.317 -46.2893 218.446C-54.6683 228.205 -60.0065 241.911 -57.8226 256.147" stroke="#E3E3E3" stroke-miterlimit="10"/>
<path d="M335.813 12.6825C329.403 23.737 321.339 33.6211 312.016 42.2312C307.855 46.0545 303.493 49.6516 298.656 52.5359C288.934 58.3868 278.033 61.1955 267.166 62.3187C264.157 62.6242 261.113 62.7993 258.051 62.9092C245.292 63.2746 232.482 61.9065 219.909 59.0789C207.549 56.2646 195.456 51.8431 182.861 47.9034C167.962 43.2445 153.047 37.7515 137.589 35.6857C124.459 33.9133 110.447 35.0985 99.1563 41.643C97.0868 42.8183 95.136 44.1718 93.3039 45.7036C81.9712 55.1935 76.977 69.6466 73.9 84.4318C72.9186 89.0924 72.1516 93.7662 71.3669 98.3748C69.422 110.346 67.0058 122.651 63.5548 134.252C57.8538 153.083 48.3112 169.157 33.7077 181.606C28.0024 186.466 21.1542 190.999 13.5421 193.498C2.63968 197.076 -8.0893 197.674 -17.6735 200.414C-18.4602 200.622 -19.1636 200.878 -19.9504 201.085C-31.3117 204.784 -40.9647 211.665 -47.9314 221.19C-55.364 231.326 -59.6177 244.885 -56.9501 258.573" stroke="#E9E9E9" stroke-miterlimit="10"/>
<path d="M333.002 8.04231C326.801 18.8312 318.798 28.4193 309.601 36.7161C305.536 40.3741 301.204 43.8233 296.433 46.69C286.955 52.4061 276.423 55.5365 265.812 57.0812C262.839 57.517 259.896 57.8051 256.935 58.0281C244.401 58.9627 231.733 58.1162 219.319 55.8754C207.037 53.6 194.972 49.8001 182.645 46.0694C167.353 41.5148 152.219 35.7309 136.446 33.539C123.066 31.6231 108.691 32.7644 97.1211 39.3125C94.986 40.505 93.0353 41.8584 91.1377 43.4074C79.4952 53.0484 74.4409 67.7958 71.2382 82.8926C70.209 87.6353 69.3942 92.3912 68.5617 97.082C66.4734 109.3 63.8305 121.804 60.0216 133.637C53.8016 152.884 43.7401 169.373 28.1607 181.59C22.4325 186.107 15.7403 190.179 8.40845 192.674C-1.99935 196.261 -12.3843 197.606 -21.5766 201.011C-22.28 201.267 -23.049 201.54 -23.7347 201.861C-34.6031 206.337 -43.4833 213.992 -49.5691 223.912C-56.0554 234.427 -59.2245 247.838 -56.0733 260.977" stroke="#EEEEEE" stroke-miterlimit="10"/>
<path d="M330.113 3.43546C324.056 13.9761 316.196 23.3161 307.042 31.2517C303.008 34.7618 298.706 38.0632 294.131 40.8778C284.898 46.459 274.735 49.911 264.379 51.8771C261.507 52.426 258.599 52.8444 255.674 53.1977C243.413 54.6191 230.906 54.3591 218.569 52.6572C206.38 50.9859 194.392 47.7249 182.285 44.2858C166.648 39.7528 151.265 33.8258 135.158 31.4426C121.547 29.4484 106.791 30.4807 94.9596 37.0975C92.8246 38.2899 90.7428 39.6779 88.7974 41.3092C76.8452 51.1012 71.7308 66.1429 68.4024 81.5512C67.3254 86.3761 66.4805 91.2793 65.6657 96.0349C63.434 108.499 60.582 121.267 56.4809 133.317C49.7899 152.896 39.1138 169.965 22.6064 181.868C16.8552 186.041 10.2536 189.67 3.26744 192.144C-6.7113 195.757 -16.7043 197.767 -25.5047 201.837C-26.1904 202.157 -26.8761 202.478 -27.5441 202.864C-37.9019 208.184 -46.0748 216.629 -51.2143 226.927C-56.7365 237.885 -58.8389 251.084 -55.2041 263.675" stroke="#F4F4F4" stroke-miterlimit="10"/>
<path d="M327.246 -1.18687C321.398 9.0883 313.599 18.1323 304.636 25.7376C300.632 29.0998 296.426 32.2359 291.899 34.9678C282.911 40.4143 273.052 44.2051 263.016 46.5754C260.18 47.2545 257.373 47.786 254.484 48.2696C242.448 50.2601 230.083 50.5215 217.888 49.3411C205.841 48.1912 193.834 45.6341 181.977 42.3387C165.947 37.91 150.344 31.6921 133.923 29.1828C119.997 27.0625 104.944 28.0336 92.9158 34.7019C90.7153 35.9116 88.568 37.3167 86.6227 38.9479C74.4263 48.8737 69.1862 64.227 65.7145 79.8817C64.6074 84.8538 63.6969 89.774 62.8344 94.6118C60.4591 107.323 57.3983 120.354 53.0049 132.62C45.7949 152.615 34.6355 170.229 17.1823 181.753C11.4083 185.582 4.94501 188.686 -1.74332 191.22C-11.293 194.859 -20.8764 197.599 -29.285 202.334C-29.953 202.72 -30.6209 203.106 -31.2888 203.492C-41.1538 209.589 -48.5363 218.872 -52.795 229.566C-57.3709 240.902 -58.3712 254.018 -54.3362 266.014" stroke="#F9F9F9" stroke-miterlimit="10"/>
<path d="M324.369 -5.78818C311.094 17.4824 287.496 34.05 261.613 41.4426C235.73 48.8351 207.77 47.5567 181.663 40.6905C165.241 36.3658 149.353 29.8745 132.617 27.239C115.881 24.6036 97.3846 26.3443 84.246 36.9374C67.8139 50.1461 63.8377 72.9872 59.8365 93.6697C53.2742 127.67 41.209 164.171 11.4431 182.088C-3.40707 191.037 -21.3298 194.373 -35.2479 204.683C-54.4757 218.979 -62.3637 246.554 -53.6171 268.9" stroke="white" stroke-miterlimit="10"/>
</g>
</g>
<defs>
<clipPath id="clip0_50361_103770">
<path d="M6.99383e-07 105C3.13124e-07 109.418 3.58172 113 8 113L193 113L193 1.61381e-06L8.00001 -1.45594e-05C3.58174 -1.49457e-05 9.56565e-06 3.58171 9.17939e-06 7.99998L6.99383e-07 105Z" fill="white"/>
</clipPath>
</defs>
</svg>
