<svg width="40" height="40" viewBox="0 0 40 40" fill="none" xmlns="http://www.w3.org/2000/svg">
<path d="M20.0022 39.9965C30.4342 39.9965 38.8911 31.5397 38.8911 21.1076C38.8911 10.6756 30.4342 2.21875 20.0022 2.21875C9.57013 2.21875 1.11328 10.6756 1.11328 21.1076C1.11328 31.5397 9.57013 39.9965 20.0022 39.9965Z" fill="#F4900C"/>
<path d="M20.0022 37.7778C30.4342 37.7778 38.8911 29.3209 38.8911 18.8889C38.8911 8.45684 30.4342 0 20.0022 0C9.57013 0 1.11328 8.45684 1.11328 18.8889C1.11328 29.3209 9.57013 37.7778 20.0022 37.7778Z" fill="#FFCC4D"/>
<path d="M20.0009 35.5564C28.592 35.5564 35.5564 28.592 35.5564 20.0009C35.5564 11.4098 28.592 4.44531 20.0009 4.44531C11.4098 4.44531 4.44531 11.4098 4.44531 20.0009C4.44531 28.592 11.4098 35.5564 20.0009 35.5564Z" fill="#FFE8B6"/>
<path d="M20.0009 34.4431C28.592 34.4431 35.5564 27.4787 35.5564 18.8876C35.5564 10.2965 28.592 3.33203 20.0009 3.33203C11.4098 3.33203 4.44531 10.2965 4.44531 18.8876C4.44531 27.4787 11.4098 34.4431 20.0009 34.4431Z" fill="#FFAC33"/>
<path d="M26.5289 21.4719C26.3905 21.4707 26.255 21.4317 26.1367 21.3589C26.0184 21.2862 25.9217 21.1825 25.8568 21.0587C25.7919 20.9349 25.7613 20.7957 25.7682 20.6557C25.775 20.5157 25.8191 20.3802 25.8957 20.2636C26.7863 18.9247 27.2416 17.3376 27.1979 15.724C27.1542 14.1104 26.6138 12.551 25.6521 11.2635C25.5292 11.0999 25.4757 10.8935 25.5031 10.6898C25.5306 10.4861 25.6369 10.3018 25.7986 10.1774C25.9602 10.0531 26.1641 9.99885 26.3652 10.0267C26.5664 10.0545 26.7484 10.1621 26.8713 10.3258C28.0264 11.8712 28.6756 13.7435 28.7279 15.6809C28.7802 17.6183 28.2331 19.5237 27.1632 21.1308C27.0931 21.2359 26.9986 21.3219 26.888 21.3814C26.7774 21.4409 26.6541 21.4719 26.5289 21.4719Z" fill="#F4900C"/>
<path d="M26.5289 20.3586C26.3905 20.3574 26.255 20.3184 26.1367 20.2457C26.0184 20.1729 25.9217 20.0692 25.8568 19.9454C25.7919 19.8216 25.7613 19.6824 25.7682 19.5424C25.775 19.4025 25.8191 19.267 25.8957 19.1503C26.7863 17.8114 27.2416 16.2243 27.1979 14.6108C27.1542 12.9972 26.6138 11.4377 25.6521 10.1503C25.5292 9.98657 25.4757 9.78018 25.5031 9.57649C25.5306 9.37281 25.6369 9.18851 25.7986 9.06416C25.9602 8.9398 26.1641 8.88556 26.3652 8.91338C26.5664 8.9412 26.7484 9.04879 26.8713 9.21249C28.0264 10.7579 28.6756 12.6302 28.7279 14.5676C28.7802 16.505 28.2331 18.4105 27.1632 20.0175C27.0931 20.1226 26.9986 20.2086 26.888 20.2681C26.7774 20.3276 26.6541 20.3587 26.5289 20.3586Z" fill="#FFE8B3"/>
<path d="M24.1953 19.043C24.0657 19.0415 23.9385 19.0069 23.8257 18.9423C23.7128 18.8776 23.618 18.7851 23.55 18.6734C23.4819 18.5617 23.4429 18.4343 23.4366 18.3032C23.4303 18.1721 23.4569 18.0415 23.5138 17.9236C23.851 17.2357 24.0079 16.4717 23.9695 15.7048C23.931 14.9379 23.6986 14.1939 23.2943 13.5441C23.2406 13.4582 23.2042 13.3624 23.187 13.2622C23.1699 13.1619 23.1724 13.0593 23.1944 12.9601C23.2165 12.8608 23.2576 12.767 23.3154 12.6838C23.3733 12.6007 23.4468 12.5299 23.5317 12.4755C23.7031 12.3657 23.9106 12.3293 24.1085 12.3743C24.3064 12.4194 24.4786 12.5422 24.5871 12.7158C25.1323 13.5904 25.4461 14.5923 25.4984 15.6251C25.5506 16.658 25.3396 17.6871 24.8856 18.6136C24.8215 18.7432 24.7229 18.852 24.6009 18.9279C24.4789 19.0038 24.3385 19.0437 24.1953 19.043Z" fill="#F4900C"/>
<path d="M24.1953 17.9297C24.0657 17.9283 23.9385 17.8936 23.8257 17.829C23.7128 17.7643 23.618 17.6719 23.55 17.5601C23.4819 17.4484 23.4429 17.321 23.4366 17.1899C23.4303 17.0588 23.4569 16.9282 23.5138 16.8103C23.851 16.1225 24.0079 15.3584 23.9695 14.5915C23.931 13.8246 23.6986 13.0806 23.2943 12.4308C23.2406 12.3449 23.2042 12.2491 23.187 12.1489C23.1699 12.0487 23.1724 11.946 23.1944 11.8468C23.2165 11.7475 23.2576 11.6537 23.3154 11.5705C23.3733 11.4874 23.4468 11.4166 23.5317 11.3622C23.7031 11.2524 23.9106 11.216 24.1085 11.2611C24.3064 11.3061 24.4786 11.4289 24.5871 11.6025C25.1323 12.4771 25.4461 13.479 25.4984 14.5119C25.5506 15.5447 25.3396 16.5739 24.8856 17.5003C24.8215 17.6299 24.7229 17.7388 24.6009 17.8146C24.4789 17.8905 24.3385 17.9304 24.1953 17.9297Z" fill="#FFE8B3"/>
<path d="M13.4798 21.4645C13.3545 21.4648 13.2311 21.4338 13.1205 21.3743C13.0099 21.3148 12.9154 21.2286 12.8455 21.1234C11.7755 19.5164 11.2284 17.6109 11.2808 15.6735C11.3331 13.7362 11.9823 11.8638 13.1374 10.3184C13.2599 10.1547 13.4417 10.047 13.6426 10.019C13.8436 9.99094 14.0473 10.0449 14.209 10.169C14.3707 10.293 14.4771 10.477 14.5048 10.6805C14.5324 10.884 14.4791 11.0903 14.3566 11.254C13.3949 12.5414 12.8544 14.1008 12.8108 15.7144C12.7671 17.328 13.2224 18.9151 14.113 20.254C14.1896 20.3707 14.2337 20.5061 14.2405 20.6461C14.2474 20.7861 14.2167 20.9253 14.1519 21.0491C14.087 21.1729 13.9903 21.2766 13.872 21.3493C13.7537 21.4221 13.6182 21.4611 13.4798 21.4623V21.4645Z" fill="#F4900C"/>
<path d="M13.4798 20.359C13.3545 20.3593 13.2311 20.3283 13.1205 20.2688C13.0099 20.2093 12.9154 20.1232 12.8455 20.0179C11.7755 18.4109 11.2284 16.5054 11.2808 14.5681C11.3331 12.6307 11.9823 10.7583 13.1374 9.21293C13.2599 9.04923 13.4417 8.94152 13.6426 8.9135C13.8436 8.88547 14.0473 8.93942 14.209 9.06349C14.3707 9.18755 14.4771 9.37156 14.5048 9.57503C14.5324 9.77851 14.4791 9.98479 14.3566 10.1485C13.3949 11.4359 12.8544 12.9954 12.8108 14.609C12.7671 16.2226 13.2224 17.8097 14.113 19.1485C14.1896 19.2652 14.2337 19.4007 14.2405 19.5406C14.2474 19.6806 14.2167 19.8198 14.1519 19.9436C14.087 20.0674 13.9903 20.1711 13.872 20.2439C13.7537 20.3166 13.6182 20.3556 13.4798 20.3568V20.359Z" fill="#FFE8B3"/>
<path d="M15.8098 19.043C15.6675 19.0427 15.5281 19.0024 15.4071 18.9266C15.2861 18.8508 15.1882 18.7424 15.1245 18.6136C14.6705 17.6871 14.4594 16.658 14.5117 15.6251C14.564 14.5923 14.8778 13.5904 15.423 12.7158C15.5315 12.5422 15.7036 12.4194 15.9016 12.3743C16.0995 12.3293 16.307 12.3657 16.4784 12.4755C16.6498 12.5854 16.7712 12.7597 16.8157 12.9601C16.8602 13.1605 16.8242 13.3706 16.7157 13.5441C16.3109 14.1935 16.0777 14.9373 16.0384 15.7042C15.9991 16.471 16.1551 17.2353 16.4913 17.9236C16.5491 18.0416 16.5763 18.1726 16.5702 18.3041C16.5642 18.4357 16.5251 18.5636 16.4567 18.6756C16.3882 18.7877 16.2927 18.8802 16.1792 18.9445C16.0656 19.0088 15.9377 19.0427 15.8076 19.043H15.8098Z" fill="#F4900C"/>
<path d="M15.8098 17.9297C15.6675 17.9295 15.5281 17.8891 15.4071 17.8133C15.2861 17.7375 15.1882 17.6291 15.1245 17.5003C14.6705 16.5739 14.4594 15.5447 14.5117 14.5119C14.564 13.479 14.8778 12.4771 15.423 11.6025C15.5315 11.4289 15.7036 11.3061 15.9016 11.2611C16.0995 11.216 16.307 11.2524 16.4784 11.3622C16.6498 11.4721 16.7712 11.6464 16.8157 11.8468C16.8602 12.0472 16.8242 12.2573 16.7157 12.4308C16.3109 13.0802 16.0777 13.824 16.0384 14.5909C15.9991 15.3577 16.1551 16.122 16.4913 16.8103C16.5491 16.9283 16.5763 17.0593 16.5702 17.1909C16.5642 17.3224 16.5251 17.4503 16.4567 17.5623C16.3882 17.6744 16.2927 17.7669 16.1792 17.8312C16.0656 17.8955 15.9377 17.9294 15.8076 17.9297H15.8098Z" fill="#FFE8B3"/>
<path d="M26.4415 28.6226L21.6426 17.1582C21.8666 16.8507 22.0021 16.4863 22.0337 16.1055C22.0654 15.7248 21.9921 15.3426 21.822 15.0015C21.6519 14.6604 21.3917 14.3737 21.0703 14.1735C20.7488 13.9732 20.3788 13.8672 20.0014 13.8672C19.624 13.8672 19.254 13.9732 18.9326 14.1735C18.6112 14.3737 18.3509 14.6604 18.1808 15.0015C18.0107 15.3426 17.9374 15.7248 17.9691 16.1055C18.0008 16.4863 18.1362 16.8507 18.3603 17.1582L13.5614 28.6226C13.5204 28.7166 13.4982 28.8179 13.4962 28.9206C13.4943 29.0233 13.5125 29.1253 13.5498 29.2208C13.5872 29.3163 13.6429 29.4033 13.7138 29.4768C13.7847 29.5503 13.8693 29.6088 13.9627 29.6488C14.0561 29.6889 14.1565 29.7097 14.2579 29.7101C14.3594 29.7105 14.4599 29.6905 14.5536 29.6512C14.6474 29.6119 14.7324 29.5541 14.8039 29.4812C14.8754 29.4083 14.9318 29.3217 14.9699 29.2265L15.4708 28.0287C16.7284 27.2193 18.335 26.7749 20.0437 26.7749C21.6898 26.7749 23.2601 27.1937 24.5013 27.9571L25.033 29.2276C25.0711 29.3228 25.1275 29.4094 25.199 29.4823C25.2704 29.5552 25.3555 29.613 25.4492 29.6523C25.5429 29.6916 25.6435 29.7116 25.7449 29.7112C25.8464 29.7108 25.9467 29.69 26.0401 29.6499C26.1335 29.6099 26.2182 29.5514 26.2891 29.4779C26.3599 29.4045 26.4157 29.3174 26.453 29.2219C26.4904 29.1264 26.5086 29.0244 26.5066 28.9217C26.5046 28.819 26.4825 28.7177 26.4415 28.6237V28.6226ZM20.0014 17.9971C20.1087 17.9971 20.2159 17.9885 20.3219 17.9715L22.306 22.7071C20.7837 22.3864 19.212 22.3932 17.6925 22.7271L19.6832 17.9721C19.7885 17.9888 19.8949 17.9971 20.0014 17.9971ZM20.0437 25.2243C18.7938 25.2193 17.5527 25.4361 16.3767 25.8649L16.9254 24.5582C18.9108 23.8534 21.0719 23.8405 23.0654 24.5215L23.614 25.8299C22.4663 25.4253 21.259 25.2207 20.0437 25.2249V25.2243Z" fill="#F4900C"/>
<path d="M26.4415 27.5094L21.6426 16.0449C21.8666 15.7374 22.0021 15.373 22.0337 14.9923C22.0654 14.6115 21.9921 14.2293 21.822 13.8882C21.6519 13.5471 21.3917 13.2604 21.0703 13.0602C20.7488 12.8599 20.3788 12.7539 20.0014 12.7539C19.624 12.7539 19.254 12.8599 18.9326 13.0602C18.6112 13.2604 18.3509 13.5471 18.1808 13.8882C18.0107 14.2293 17.9374 14.6115 17.9691 14.9923C18.0008 15.373 18.1362 15.7374 18.3603 16.0449L13.5614 27.5094C13.5204 27.6033 13.4982 27.7046 13.4962 27.8073C13.4943 27.91 13.5125 28.012 13.5498 28.1075C13.5872 28.203 13.6429 28.2901 13.7138 28.3635C13.7847 28.437 13.8693 28.4955 13.9627 28.5355C14.0561 28.5756 14.1565 28.5964 14.2579 28.5968C14.3594 28.5973 14.4599 28.5772 14.5536 28.5379C14.6474 28.4986 14.7324 28.4408 14.8039 28.3679C14.8754 28.295 14.9318 28.2084 14.9699 28.1132L15.4708 26.9155C16.7284 26.106 18.335 25.6616 20.0437 25.6616C21.6898 25.6616 23.2601 26.0805 24.5013 26.8438L25.033 28.1144C25.0711 28.2096 25.1275 28.2961 25.199 28.369C25.2704 28.4419 25.3555 28.4997 25.4492 28.539C25.5429 28.5783 25.6435 28.5984 25.7449 28.598C25.8464 28.5975 25.9467 28.5767 26.0401 28.5367C26.1335 28.4966 26.2182 28.4381 26.2891 28.3647C26.3599 28.2912 26.4157 28.2042 26.453 28.1087C26.4904 28.0132 26.5086 27.9111 26.5066 27.8084C26.5046 27.7057 26.4825 27.6044 26.4415 27.5105V27.5094ZM20.0014 16.8838C20.1087 16.8838 20.2159 16.8752 20.3219 16.8582L22.306 21.5938C20.7837 21.2731 19.212 21.2799 17.6925 21.6138L19.6832 16.8588C19.7885 16.8755 19.8949 16.8838 20.0014 16.8838ZM20.0437 24.111C18.7938 24.106 17.5527 24.3228 16.3767 24.7516L16.9254 23.4449C18.9108 22.7401 21.0719 22.7272 23.0654 23.4082L23.614 24.7166C22.4663 24.312 21.259 24.1074 20.0437 24.1116V24.111Z" fill="#FFE8B3"/>
</svg>
