<svg width="80" height="80" viewBox="0 0 80 80" fill="none" xmlns="http://www.w3.org/2000/svg">
<path d="M12.6842 45.6042L0 31.1949L37.9512 4L75.9023 31.1949L63.0152 45.6042H12.6842Z" fill="#6C63FF"/>
<path d="M12.6842 45.6042L0 31.1949L37.9512 4L75.9023 31.1949L63.0152 45.6042H12.6842Z" fill="#900E0E"/>
<path d="M74.0758 33.0234H0V65.3935H74.0758V33.0234Z" fill="#6C63FF"/>
<path d="M74.0758 33.0234H0V65.3935H74.0758V33.0234Z" fill="#F55151"/>
<path d="M75.9023 76.9599H0V31.1953L37.9512 54.1284L75.9023 31.1953V76.9599Z" fill="#DE1B1B"/>
<path d="M66.2197 15.8599L58.1698 9.6875L36.8462 37.4966L25.0031 28.4155L18.8306 36.4653L34.6975 48.6136L38.7664 51.663L66.2197 15.8599Z" fill="#3AD29F"/>
<path d="M0.319849 20.9349L0.0180664 21.0823L0.0527704 21.0206L0.0262858 21.0291L0.0634251 21.0016L4.12511 13.7734L6.20136 15.5437L7.98253 17.1928L7.4711 17.4425L8.04605 18.4566L0.319849 20.9349Z" fill="url(#paint0_linear)"/>
<path d="M5.99575 15.7344L7.62379 17.2439L0.244629 20.9125L4.17156 15.8794L5.99575 15.7344Z" fill="#6C63FF"/>
<path d="M5.99575 15.7344L7.62379 17.2439L0.244629 20.9125L4.17156 15.8794L5.99575 15.7344Z" fill="#F55151"/>
<path d="M4.09678 14.1094L0.244629 20.9067L5.99576 15.7286L4.09678 14.1094Z" fill="#DE1B1B"/>
<path d="M7.67118 18.4131L0.252441 20.8637L6.45401 16.2344L7.67118 18.4131Z" fill="#DE1B1B"/>
<path d="M69.7083 7.93037L68.083 10.7482L80 12.6887L72.3246 7.34375L69.7083 7.93037Z" fill="#6C63FF"/>
<path d="M69.7083 7.93037L68.083 10.7482L80 12.6887L72.3246 7.34375L69.7083 7.93037Z" fill="#F55151"/>
<path d="M71.6652 4.84375L79.9998 12.6906L69.708 7.9323L71.6652 4.84375Z" fill="#DE1B1B"/>
<path d="M68.5225 12.4046L79.9675 12.6233L69.283 8.82812L68.5225 12.4046Z" fill="#DE1B1B"/>
<defs>
<linearGradient id="paint0_linear" x1="6.03937" y1="20.8109" x2="1.45679" y2="16.9037" gradientUnits="userSpaceOnUse">
<stop stop-color="#808080" stop-opacity="0.25"/>
<stop offset="0.53514" stop-color="#808080" stop-opacity="0.12"/>
<stop offset="1" stop-color="#808080" stop-opacity="0.1"/>
</linearGradient>
</defs>
</svg>
