<svg width="80" height="80" viewBox="0 0 80 80" fill="none" xmlns="http://www.w3.org/2000/svg">
<path d="M12.6842 45.6042L0 31.1949L37.9512 4L75.9023 31.1949L63.0152 45.6042H12.6842Z" fill="#6C63FF"/>
<path d="M12.6842 45.6042L0 31.1949L37.9512 4L75.9023 31.1949L63.0152 45.6042H12.6842Z" fill="#900E0E"/>
<path d="M74.0758 33.0234H0V65.3935H74.0758V33.0234Z" fill="#6C63FF"/>
<path d="M74.0758 33.0234H0V65.3935H74.0758V33.0234Z" fill="#F55151"/>
<path d="M75.9023 76.9599H0V31.1953L37.9512 54.1284L75.9023 31.1953V76.9599Z" fill="#DE1B1B"/>
<path d="M15.5 15H52V45H15.5M30 30L15.5 44.5L30 59" stroke="#FAF0F0" stroke-width="8"/>
<path d="M0.321314 20.9349L0.0195312 21.0823L0.0542352 21.0206L0.0277506 21.0291L0.06489 21.0016L4.12658 13.7734L6.20283 15.5437L7.984 17.1928L7.47257 17.4425L8.04752 18.4566L0.321314 20.9349Z" fill="url(#paint0_linear)"/>
<path d="M5.99722 15.7344L7.62526 17.2439L0.246094 20.9125L4.17302 15.8794L5.99722 15.7344Z" fill="#6C63FF"/>
<path d="M5.99722 15.7344L7.62526 17.2439L0.246094 20.9125L4.17302 15.8794L5.99722 15.7344Z" fill="#F55151"/>
<path d="M4.09824 14.1094L0.246094 20.9067L5.99722 15.7286L4.09824 14.1094Z" fill="#DE1B1B"/>
<path d="M7.67265 18.4131L0.253906 20.8637L6.45547 16.2344L7.67265 18.4131Z" fill="#DE1B1B"/>
<path d="M69.7073 7.93037L68.082 10.7482L79.999 12.6887L72.3236 7.34375L69.7073 7.93037Z" fill="#6C63FF"/>
<path d="M69.7073 7.93037L68.082 10.7482L79.999 12.6887L72.3236 7.34375L69.7073 7.93037Z" fill="#F55151"/>
<path d="M71.6643 4.84375L79.9988 12.6906L69.707 7.9323L71.6643 4.84375Z" fill="#DE1B1B"/>
<path d="M68.5234 12.4046L79.9685 12.6233L69.284 8.82812L68.5234 12.4046Z" fill="#DE1B1B"/>
<defs>
<linearGradient id="paint0_linear" x1="6.04084" y1="20.8109" x2="1.45825" y2="16.9037" gradientUnits="userSpaceOnUse">
<stop stop-color="#808080" stop-opacity="0.25"/>
<stop offset="0.53514" stop-color="#808080" stop-opacity="0.12"/>
<stop offset="1" stop-color="#808080" stop-opacity="0.1"/>
</linearGradient>
</defs>
</svg>
