<svg width="80" height="24" viewBox="0 0 80 24" fill="none" xmlns="http://www.w3.org/2000/svg">
<g clip-path="url(#clip0)">
<path d="M0.0832 16.0136C0.0832 14.852 0.0624 13.892 0 13.02H2.1888L2.2928 14.5096H2.3536C2.8496 13.724 3.7584 12.8008 5.4512 12.8008C6.05022 12.7831 6.63999 12.9516 7.1392 13.2832C7.63841 13.6148 8.02246 14.093 8.2384 14.652H8.2816C8.58836 14.1403 9.01226 13.7087 9.5184 13.3928C10.1121 12.9834 10.8217 12.7759 11.5424 12.8008C13.216 12.8008 14.9024 13.9368 14.9024 17.1592V23.0793H12.4304V17.5224C12.4304 15.8504 11.8528 14.8584 10.6336 14.8584C9.7664 14.8584 9.1264 15.4776 8.8576 16.2008C8.78375 16.4767 8.74241 16.7602 8.7344 17.0456V23.0761H6.256V17.252C6.256 15.8504 5.6992 14.852 4.5216 14.852C3.5728 14.852 2.9328 15.596 2.704 16.292C2.60302 16.5564 2.55412 16.8379 2.56 17.1208V23.0793H0.0832V16.0136Z" fill="#003A70"/>
<path d="M24.5611 20.6614C24.5485 21.4686 24.5961 22.2757 24.7035 23.0758H22.4123L22.2523 21.9558H22.1899C21.5691 22.7414 20.5163 23.2966 19.2171 23.2966C17.1931 23.2966 16.0571 21.8326 16.0571 20.303C16.0571 17.7622 18.3067 16.4838 22.0251 16.503V16.343C22.0251 15.6822 21.7563 14.583 19.9803 14.583C19.0261 14.5851 18.0899 14.8437 17.2699 15.3318L16.7755 13.679C17.5179 13.2246 18.8187 12.791 20.4075 12.791C23.6299 12.791 24.5675 14.8374 24.5675 17.0246L24.5611 20.6614ZM22.0795 18.1638C20.2827 18.1222 18.5707 18.5126 18.5707 20.0406C18.5707 21.0326 19.2107 21.4806 20.0107 21.4806C20.4447 21.4877 20.8699 21.3577 21.2258 21.1093C21.5817 20.8608 21.8502 20.5065 21.9931 20.0966C22.0489 19.9163 22.0765 19.7285 22.0747 19.5398L22.0795 18.1638Z" fill="#003A70"/>
<path d="M26.3149 16.0118C26.3149 14.8566 26.2941 13.8854 26.2349 13.0182H28.4621L28.5853 14.5286H28.6493C29.0813 13.743 30.1757 12.791 31.8493 12.791C33.6093 12.791 35.4205 13.927 35.4205 17.111V23.0742H32.8813V17.3974C32.8813 15.9574 32.3437 14.8566 30.9613 14.8566C29.9501 14.8566 29.2461 15.5798 28.9789 16.343C28.9003 16.6109 28.8652 16.8896 28.8749 17.1686V23.0742H26.3149V16.0118Z" fill="#003A70"/>
<path d="M46.431 8.97852V20.2441C46.431 21.2761 46.4742 22.3929 46.5142 23.0729H44.2438L44.1414 21.4841H44.0982C43.4998 22.6041 42.2822 23.3001 40.8166 23.3001C38.4166 23.3001 36.5222 21.2569 36.5222 18.1609C36.4998 14.8009 38.6022 12.7897 41.023 12.7897C42.4054 12.7897 43.3974 13.3673 43.8502 14.1145H43.8934V8.97852H46.431ZM43.8934 17.2089C43.8937 16.9866 43.8723 16.7647 43.8294 16.5465C43.6038 15.5593 42.799 14.7529 41.6422 14.7529C40.0118 14.7529 39.1014 16.1929 39.1014 18.0777C39.1014 19.9129 40.0118 21.2569 41.623 21.2569C42.1389 21.2549 42.6383 21.0748 43.0368 20.7472C43.4353 20.4195 43.7084 19.9643 43.8102 19.4585C43.8705 19.2158 43.8985 18.9662 43.8934 18.7161V17.2089Z" fill="#003A70"/>
<path d="M48.2266 23.0736V13.0176H50.7866V23.0736H48.2266Z" fill="#003A70"/>
<path d="M52.584 16.2607C52.584 14.8975 52.5632 13.9263 52.5024 13.0175H54.72L54.8016 14.9375H54.88C55.376 13.5151 56.552 13.0175 57.6272 13.0175C57.8256 12.9968 58.0257 12.9968 58.224 13.0175V15.2495C57.9804 15.1947 57.7314 15.1668 57.4816 15.1663C56.2624 15.1663 55.4368 15.9503 55.2096 17.0863C55.16 17.3459 55.1327 17.6093 55.128 17.8735V23.0735H52.584V16.2607Z" fill="#003A70"/>
<path d="M59.3997 23.0736V13.0176H61.9597V23.0736H59.3997Z" fill="#003A70"/>
<path d="M77.8934 2.38518C76.6262 0.945179 75.279 1.58518 74.2134 2.12598C73.759 2.34838 70.511 4.19158 70.511 4.19158C68.7302 4.92598 67.343 4.12438 66.7974 3.44918C66.7453 3.38521 66.6982 3.31727 66.6566 3.24598L66.5302 3.02678C66.3164 2.65515 66.0775 2.29859 65.815 1.95958C65.6586 1.75235 65.4875 1.55664 65.303 1.37398C64.0854 0.141979 62.1366 -0.718821 58.879 0.845979C57.3366 1.73878 52.319 4.60918 52.319 4.60918C50.4326 5.38678 48.9878 4.43958 48.5206 3.74518C48.5004 3.71882 48.4823 3.69101 48.4662 3.66198L48.4038 3.55638L48.0838 3.03638C47.9478 2.82198 47.7974 2.60118 47.623 2.37398C47.4634 2.16887 47.2919 1.97334 47.1094 1.78838C45.8982 0.565979 43.9606 -0.291621 40.7334 1.24118C38.783 2.36118 34.239 4.95958 34.239 4.95958L30.9126 6.85078L32.639 8.95958C33.3622 9.64918 34.719 10.7804 36.8262 9.82678C36.8262 9.82678 42.631 6.46678 42.6534 6.45558C47.6134 3.73558 50.0678 6.33398 51.1494 8.06838C51.1878 8.12278 51.2182 8.18198 51.2518 8.22838C51.2646 8.24918 51.2726 8.26998 51.2838 8.28918L51.407 8.48918C51.6536 8.88995 51.9999 9.2199 52.4122 9.44677C52.8244 9.67365 53.2885 9.7897 53.759 9.78358C54.3062 9.77238 54.6774 9.59478 55.2166 9.29398L60.8294 6.05078H60.8422C65.8678 3.29238 68.3622 6.06678 69.4214 7.80118C69.5047 7.9485 69.596 8.09112 69.695 8.22838C70.2214 8.94198 70.9478 9.40918 71.8694 9.38678C72.3622 9.34081 72.8384 9.18499 73.263 8.93078L79.999 5.04438C79.3509 4.11674 78.6477 3.22875 77.8934 2.38518Z" fill="url(#paint0_linear)"/>
</g>
<defs>
<linearGradient id="paint0_linear" x1="25.3561" y1="20.3107" x2="27.9868" y2="-9.44322" gradientUnits="userSpaceOnUse">
<stop stop-color="#FCB813"/>
<stop offset="0.22" stop-color="#FFCA05"/>
<stop offset="0.39" stop-color="#F9A51A"/>
<stop offset="0.53" stop-color="#FFCA05"/>
<stop offset="0.65" stop-color="#FAAA17"/>
<stop offset="0.69" stop-color="#FDBC0D"/>
<stop offset="0.72" stop-color="#FEC707"/>
<stop offset="0.76" stop-color="#FFCA05"/>
<stop offset="0.8" stop-color="#FFCA05"/>
<stop offset="1" stop-color="#FFCA05"/>
</linearGradient>
<clipPath id="clip0">
<rect width="80" height="23.3024" fill="white"/>
</clipPath>
</defs>
</svg>
