<svg width="80" height="22" viewBox="0 0 80 22" fill="none" xmlns="http://www.w3.org/2000/svg">
<g clip-path="url(#clip0)">
<path fill-rule="evenodd" clip-rule="evenodd" d="M0 0.279297H6.9936C6.96373 0.520364 6.93813 0.765164 6.9168 1.0137C6.70538 3.35981 7.02079 5.72351 7.84 7.9321C8.5264 9.7561 9.2944 11.5593 10.6672 13.2121L8.6848 14.9913L0 4.4809V0.279297ZM8.64 0.279297C8.57748 1.72017 8.76146 3.16115 9.184 4.5401C9.6976 6.2201 10.944 8.1353 12.2992 9.8537C12.2288 8.9065 12.4176 8.0457 12.736 7.1433C13.584 4.7289 16.512 2.9593 18.496 3.1881C19.6496 3.3225 20.6512 3.4009 21.696 4.0745V0.279297H8.64ZM21.7024 7.9145V16.1609C21.0506 16.3532 20.3589 16.3654 19.7008 16.1961C18.1552 15.8441 16.9984 14.7561 15.3808 13.0169C14.4128 12.0009 14.328 11.4057 14.1584 10.8809C13.6784 9.4185 13.6064 7.3465 14.784 6.2409C15.7104 5.3737 16.4656 5.1705 17.728 5.3785C18.9904 5.5865 20.288 6.4009 21.6224 7.8233L21.7024 7.9097V7.9145ZM21.7024 17.8569C20.6496 18.2836 19.4789 18.3828 18.1904 18.1545C16.1104 17.7833 13.728 16.5129 11.5664 14.2185L9.4768 16.0873L12.6048 19.8745C13.1296 20.5145 13.6 20.8857 14.016 20.9945C14.856 21.1977 16.8864 20.0105 14.9904 21.9865H21.7008V17.8569H21.7024ZM10.6624 21.9801H2.3424L7.2368 17.7369L10.6544 21.9801H10.6624ZM0.2272 21.9801L6.2736 16.5801L0 8.8009V21.9817L0.2272 21.9801Z" fill="#F48120"/>
<path fill-rule="evenodd" clip-rule="evenodd" d="M39.5661 9.5188C42.0669 9.6596 42.5805 10.426 43.6829 11.2884C44.7853 12.1508 45.3389 13.3492 45.3389 14.8708C45.3389 16.8068 44.4157 18.4692 42.5581 19.8724C40.7005 21.2756 37.4877 21.7124 34.6253 21.7124L27.8013 21.7268C28.8093 20.7156 28.4413 21.1044 29.0605 20.3444C29.2191 20.108 29.3022 19.8291 29.2989 19.5444C29.3821 18.338 29.4173 16.9716 29.4173 15.434V5.9828C29.4173 3.4564 29.3197 2.0244 29.1085 1.6916C28.3005 0.421204 29.0157 1.186 27.5005 0.158803C30.6109 0.158803 33.7261 0.0180034 36.8925 0.133203C38.8925 0.205203 40.6477 0.773203 41.6349 1.3828C42.8797 2.1508 43.4989 3.242 43.4989 4.642C43.4989 5.7972 43.0621 6.8052 42.1821 7.682C41.3021 8.5588 41.6925 8.9364 39.5661 9.522V9.5188ZM32.7405 8.7092C33.3245 8.7396 32.7853 8.7556 33.2749 8.7556C35.5837 8.7556 37.2013 8.7812 38.2029 8.0692C39.2045 7.3572 39.4029 6.2004 39.4029 4.8548C39.4029 3.6948 38.9373 3.0564 38.1037 2.4356C37.2701 1.8148 36.3197 1.5044 34.4765 1.5044C33.6605 1.5044 33.8125 1.442 32.8589 1.5716C32.696 3.43353 32.6426 5.30341 32.6989 7.1716L32.7405 8.7124V8.7092ZM32.7405 19.578C34.4653 19.6404 37.7501 19.9124 39.1021 18.978C40.3197 18.1348 40.7997 16.7252 40.7997 15.0852C40.7997 13.9924 40.5501 13.562 40.0493 12.8452C39.5284 12.119 38.7932 11.574 37.9469 11.2868C37.0477 10.9668 35.6077 10.7892 33.6269 10.7892C33.0381 10.7892 33.4397 10.8052 32.6957 10.8372V15.7492L32.7133 17.6596C32.7485 18.3476 32.7661 18.8756 32.7661 19.2388C32.7661 19.5156 32.7885 19.21 32.7405 19.578Z" fill="#3C8376"/>
<path fill-rule="evenodd" clip-rule="evenodd" d="M52.0475 17.7132C52.0475 20.2732 52.1019 20.4332 52.4859 20.966C52.6967 21.2508 52.9387 21.5111 53.2075 21.742C53.2539 21.7884 53.3675 21.7948 52.9147 21.7948H50.9947C50.3371 21.7948 49.5051 21.7804 48.9611 21.782C47.6139 21.782 48.8411 21.6412 49.2811 20.8748C49.5131 20.4684 49.6011 20.2876 49.6011 17.7628V2.61396C49.5339 1.45236 49.7355 1.33396 48.7035 0.599562C48.2715 0.293962 47.8571 0.0347623 47.9995 0.0395623C48.7195 0.0715623 51.7515 -0.0404377 52.1259 0.148362C52.3035 0.237962 52.9259 0.604362 53.0859 0.801162L64.6395 14.1692L64.6187 2.98516C64.6187 2.26676 64.6187 1.82676 64.3323 1.34836C63.9403 0.695562 63.5195 0.121162 62.7851 0.0571623C62.6683 0.0475623 67.3563 0.0907623 68.9851 0.0571623C69.0155 0.0571623 67.1595 1.40916 67.1563 2.91636L67.1131 20.1628C67.1131 21.0204 67.1595 20.8588 67.2491 21.7948C67.3643 23.006 62.8811 18.2252 62.2891 17.5148C58.0731 12.47 52.4411 6.92116 52.0491 6.20756L52.0475 17.7132Z" fill="#3C8376"/>
<path fill-rule="evenodd" clip-rule="evenodd" d="M77.6527 4.97538V16.801C77.6527 17.809 77.7327 18.561 77.7711 19.0746C77.9311 21.041 79.9599 21.6538 79.9999 21.905H72.0847C72.1839 21.7898 74.1167 20.9114 74.1215 18.569C74.1215 18.1466 74.1727 17.5834 74.1727 16.8666V5.03937C74.1631 3.94978 74.0735 3.14338 74.0367 2.61858C73.8943 0.589776 72.1759 0.160976 72.0847 0.000975793H79.9999C80.0239 -0.0166242 77.8831 0.178576 77.7167 2.69058C77.6847 3.18498 77.6527 4.33378 77.6527 4.97538Z" fill="#3C8376"/>
</g>
<defs>
<clipPath id="clip0">
<rect width="80" height="21.9888" fill="white"/>
</clipPath>
</defs>
</svg>
