<svg width="160" height="160" viewBox="0 0 160 160" fill="none" xmlns="http://www.w3.org/2000/svg">
<path d="M153.353 136.85C153.551 136.997 153.712 137.188 153.824 137.408C153.936 137.628 153.996 137.87 154 138.117C154.02 138.383 153.986 138.651 153.898 138.904C153.811 139.157 153.673 139.389 153.493 139.587C153.336 139.744 153.149 139.869 152.943 139.953C152.737 140.037 152.516 140.079 152.293 140.077C151.924 140.066 151.56 139.992 151.216 139.857L150.79 139.73C150.558 139.665 150.317 139.632 150.076 139.633C149.511 139.64 148.96 139.816 148.496 140.14C147.948 140.528 147.516 141.058 147.246 141.673C146.902 142.444 146.735 143.283 146.756 144.127V151.623C146.763 151.877 146.719 152.129 146.627 152.366C146.535 152.602 146.396 152.818 146.22 153C145.856 153.355 145.368 153.554 144.86 153.554C144.351 153.554 143.863 153.355 143.5 153C143.322 152.818 143.183 152.603 143.09 152.366C142.997 152.13 142.953 151.877 142.96 151.623V138.56C142.953 138.306 142.997 138.053 143.09 137.817C143.183 137.58 143.322 137.365 143.5 137.183C143.863 136.828 144.351 136.629 144.86 136.629C145.368 136.629 145.856 136.828 146.22 137.183C146.396 137.365 146.535 137.581 146.627 137.817C146.719 138.054 146.763 138.306 146.756 138.56V138.97C147.233 138.113 147.961 137.423 148.843 136.993C149.747 136.545 150.744 136.317 151.753 136.327C152.332 136.305 152.899 136.491 153.353 136.85Z" fill="#78858B"/>
<path d="M139.196 145.93C138.824 146.245 138.35 146.413 137.863 146.403H127.43C127.63 147.56 128.249 148.602 129.17 149.33C130.041 150.025 131.125 150.399 132.24 150.39C132.922 150.412 133.604 150.333 134.263 150.153C134.666 150.031 135.053 149.861 135.416 149.647L136.003 149.283C136.334 149.106 136.701 149.007 137.076 148.997C137.289 148.994 137.5 149.035 137.696 149.117C137.892 149.199 138.069 149.32 138.216 149.473C138.367 149.615 138.487 149.787 138.568 149.977C138.65 150.168 138.691 150.373 138.69 150.58C138.675 150.89 138.587 151.192 138.433 151.461C138.28 151.73 138.065 151.959 137.806 152.13C137.094 152.678 136.291 153.095 135.433 153.363C134.184 153.781 132.865 153.944 131.552 153.841C130.239 153.738 128.961 153.371 127.793 152.763C126.507 152.055 125.448 150.997 124.74 149.71C124.012 148.367 123.643 146.86 123.666 145.333C123.631 143.671 124.022 142.028 124.803 140.56C125.497 139.256 126.535 138.167 127.803 137.41C129.013 136.691 130.396 136.315 131.803 136.32C133.196 136.321 134.561 136.716 135.74 137.46C136.97 138.214 137.988 139.269 138.696 140.527C139.43 141.796 139.812 143.238 139.803 144.703C139.798 144.94 139.741 145.172 139.636 145.384C139.531 145.596 139.381 145.782 139.196 145.93ZM127.463 143.24H135.75V143.02C135.702 142.572 135.562 142.138 135.339 141.746C135.116 141.354 134.814 141.013 134.453 140.743C133.705 140.121 132.76 139.784 131.786 139.793C129.346 139.793 127.905 140.942 127.463 143.24Z" fill="#78858B"/>
<path d="M117.276 134.227C116.98 133.993 116.833 133.583 116.833 132.993V132.39C116.833 131.8 116.993 131.39 117.31 131.157C117.77 130.894 118.299 130.778 118.826 130.823C119.563 130.823 120.08 130.94 120.376 131.157C120.673 131.373 120.82 131.8 120.82 132.39V133C120.82 133.61 120.666 134.027 120.36 134.247C120.053 134.467 119.533 134.58 118.796 134.58C118.06 134.58 117.573 134.457 117.276 134.227ZM120.186 153C119.823 153.355 119.335 153.554 118.826 153.554C118.318 153.554 117.83 153.355 117.466 153C117.289 152.818 117.15 152.603 117.058 152.366C116.966 152.13 116.922 151.877 116.93 151.623V138.56C116.922 138.306 116.966 138.054 117.058 137.817C117.15 137.581 117.289 137.365 117.466 137.183C117.83 136.828 118.318 136.63 118.826 136.63C119.335 136.63 119.823 136.828 120.186 137.183C120.364 137.365 120.503 137.581 120.595 137.817C120.687 138.054 120.731 138.306 120.723 138.56V151.623C120.731 151.877 120.687 152.13 120.595 152.366C120.503 152.603 120.364 152.818 120.186 153Z" fill="#78858B"/>
<path d="M113.813 136.85C114.012 136.997 114.174 137.187 114.287 137.407C114.399 137.627 114.46 137.869 114.463 138.116C114.483 138.383 114.449 138.651 114.362 138.904C114.275 139.157 114.137 139.389 113.957 139.586C113.799 139.744 113.611 139.869 113.405 139.953C113.198 140.038 112.976 140.079 112.753 140.076C112.385 140.066 112.022 139.992 111.68 139.856L111.253 139.73C111.021 139.665 110.781 139.632 110.54 139.633C109.974 139.639 109.423 139.815 108.96 140.14C108.412 140.528 107.979 141.058 107.71 141.673C107.366 142.444 107.198 143.282 107.22 144.126V151.623C107.225 151.878 107.179 152.131 107.084 152.368C106.989 152.604 106.847 152.819 106.667 153C106.303 153.355 105.815 153.554 105.307 153.554C104.798 153.554 104.31 153.355 103.947 153C103.77 152.818 103.631 152.602 103.539 152.366C103.447 152.129 103.403 151.877 103.41 151.623V138.56C103.403 138.306 103.447 138.054 103.539 137.817C103.631 137.581 103.77 137.365 103.947 137.183C104.31 136.828 104.798 136.629 105.307 136.629C105.815 136.629 106.303 136.828 106.667 137.183C106.844 137.365 106.984 137.58 107.076 137.816C107.169 138.053 107.213 138.306 107.207 138.56V138.97C107.683 138.113 108.412 137.423 109.293 136.993C110.197 136.545 111.194 136.317 112.203 136.326C112.785 136.302 113.357 136.488 113.813 136.85Z" fill="#78858B"/>
<path d="M100.087 136.85C100.285 136.997 100.447 137.188 100.559 137.407C100.671 137.627 100.731 137.87 100.734 138.117C100.755 138.383 100.721 138.651 100.634 138.904C100.548 139.156 100.41 139.389 100.231 139.587C100.073 139.745 99.8853 139.87 99.6786 139.954C99.4719 140.038 99.2503 140.08 99.0272 140.077C98.6582 140.066 98.2939 139.992 97.9505 139.857L97.5238 139.73C97.2929 139.665 97.0539 139.632 96.8138 139.633C96.2471 139.639 95.6954 139.816 95.2305 140.14C94.6831 140.529 94.2511 141.059 93.9805 141.673C93.6364 142.444 93.469 143.283 93.4905 144.127V151.623C93.4981 151.877 93.4545 152.13 93.3623 152.366C93.2701 152.603 93.1311 152.818 92.9538 153C92.5902 153.355 92.1021 153.554 91.5938 153.554C91.0856 153.554 90.5975 153.355 90.2338 153C90.0565 152.818 89.9176 152.603 89.8254 152.366C89.7332 152.13 89.6895 151.877 89.6971 151.623V138.56C89.6895 138.306 89.7332 138.053 89.8254 137.817C89.9176 137.58 90.0565 137.365 90.2338 137.183C90.5975 136.828 91.0856 136.629 91.5938 136.629C92.1021 136.629 92.5902 136.828 92.9538 137.183C93.1311 137.365 93.2701 137.58 93.3623 137.817C93.4545 138.053 93.4981 138.306 93.4905 138.56V138.97C93.9694 138.113 94.6986 137.424 95.5805 136.993C96.4846 136.545 97.4816 136.317 98.4905 136.327C99.0681 136.305 99.6343 136.491 100.087 136.85Z" fill="#78858B"/>
<path d="M85.0464 136.85C85.2256 137.034 85.3656 137.252 85.4579 137.491C85.5501 137.731 85.5927 137.987 85.5831 138.243V151.623C85.5899 151.877 85.5459 152.129 85.4538 152.366C85.3616 152.602 85.2231 152.818 85.0464 153C84.8702 153.181 84.6584 153.324 84.4243 153.419C84.1903 153.514 83.939 153.56 83.6864 153.553C83.4388 153.561 83.1923 153.517 82.9628 153.424C82.7332 153.331 82.5255 153.191 82.3531 153.013C82.0017 152.647 81.8027 152.161 81.7964 151.653C81.1639 152.341 80.3973 152.893 79.5438 153.274C78.6903 153.656 77.7678 153.858 76.8331 153.87C75.4335 153.885 74.0594 153.495 72.8764 152.747C71.6795 151.98 70.713 150.903 70.0797 149.63C69.3757 148.228 69.0223 146.675 69.0497 145.107C69.0191 143.535 69.3619 141.979 70.0497 140.567C70.6688 139.29 71.6256 138.208 72.8164 137.437C73.9712 136.692 75.3189 136.301 76.6931 136.313C77.6693 136.306 78.6371 136.494 79.5397 136.867C80.3646 137.199 81.1241 137.676 81.7831 138.273V138.243C81.7774 137.989 81.8232 137.735 81.9177 137.499C82.0122 137.262 82.1535 137.047 82.3331 136.867C82.5084 136.684 82.7201 136.541 82.9543 136.445C83.1886 136.35 83.4403 136.305 83.6931 136.313C83.9432 136.307 84.192 136.351 84.4246 136.443C84.6572 136.535 84.8687 136.674 85.0464 136.85ZM80.6664 148.887C81.5505 147.83 82.0123 146.483 81.9631 145.107C82.0083 143.725 81.5472 142.375 80.6664 141.31C80.2585 140.82 79.7448 140.429 79.1639 140.166C78.5831 139.904 77.9503 139.776 77.3131 139.793C76.6787 139.776 76.0488 139.904 75.4712 140.166C74.8935 140.429 74.3835 140.82 73.9797 141.31C73.1397 142.393 72.6824 143.724 72.6794 145.095C72.6764 146.466 73.1278 147.799 73.9631 148.887C74.3681 149.374 74.8788 149.762 75.4563 150.023C76.0339 150.283 76.6631 150.409 77.2964 150.39C77.9353 150.411 78.5705 150.286 79.1543 150.026C79.738 149.765 80.2551 149.376 80.6664 148.887Z" fill="#78858B"/>
<path d="M66.9533 134.1C66.9416 134.572 66.7754 135.028 66.48 135.397C66.3343 135.605 66.1401 135.774 65.9141 135.89C65.6882 136.007 65.4374 136.066 65.1833 136.063C64.8065 136.06 64.4365 135.962 64.1067 135.78C62.9672 135.266 61.7261 135.018 60.4766 135.053C59.2272 135.088 58.0021 135.406 56.8933 135.983C55.8107 136.592 54.9309 137.505 54.3633 138.61C53.7564 139.81 53.452 141.139 53.4767 142.483C53.4767 144.974 54.1433 146.863 55.4767 148.15C56.81 149.437 58.5656 150.08 60.7433 150.08C61.9079 150.103 63.0611 149.847 64.1067 149.333C64.419 149.181 64.7594 149.095 65.1067 149.08C65.3763 149.08 65.6422 149.142 65.8835 149.263C66.1248 149.383 66.3347 149.558 66.4967 149.773C66.7998 150.139 66.9671 150.598 66.97 151.073C66.9743 151.397 66.8864 151.715 66.7167 151.99C66.5421 152.268 66.2893 152.488 65.99 152.623C64.3611 153.441 62.5626 153.864 60.74 153.857C58.7649 153.877 56.8134 153.427 55.0467 152.543C53.3284 151.672 51.8954 150.326 50.9167 148.667C49.8833 146.96 49.3667 144.893 49.3667 142.467C49.3345 140.442 49.8419 138.444 50.8367 136.68C51.794 134.996 53.2009 133.611 54.9 132.68C56.6953 131.706 58.7112 131.212 60.7533 131.243C62.5673 131.228 64.3581 131.651 65.9733 132.477C66.2803 132.618 66.5378 132.849 66.7125 133.138C66.8872 133.427 66.9711 133.762 66.9533 134.1Z" fill="#78858B"/>
<path d="M45.5064 137.183C45.6837 137.365 45.8227 137.58 45.9149 137.817C46.0071 138.053 46.0507 138.306 46.0431 138.56V152C46.0431 154.74 45.3053 156.74 43.8298 158C42.3542 159.26 40.3831 159.888 37.9164 159.883C37.1796 159.881 36.4441 159.822 35.7164 159.707C35.0952 159.626 34.4855 159.472 33.8998 159.25C32.862 158.806 32.3442 158.193 32.3464 157.413C32.3517 157.241 32.3844 157.072 32.4431 156.91C32.5378 156.496 32.7648 156.124 33.0898 155.85C33.3706 155.616 33.7243 155.488 34.0898 155.487C34.2946 155.485 34.4984 155.516 34.6931 155.58C34.8398 155.643 35.0964 155.75 35.4664 155.897C35.8465 156.048 36.2377 156.169 36.6364 156.26C37.0573 156.357 37.4879 156.405 37.9198 156.403C39.4153 156.403 40.5164 156.081 41.2231 155.437C41.9298 154.792 42.2831 153.691 42.2831 152.133V151.817C41.1853 153.188 39.4775 153.873 37.1598 153.873C36.1361 153.893 35.1277 153.623 34.2498 153.097C33.406 152.579 32.7255 151.834 32.2864 150.947C31.8096 149.967 31.572 148.889 31.5931 147.8V138.56C31.5855 138.306 31.6291 138.053 31.7213 137.817C31.8135 137.58 31.9524 137.365 32.1298 137.183C32.4934 136.828 32.9815 136.629 33.4898 136.629C33.998 136.629 34.4861 136.828 34.8498 137.183C35.0271 137.365 35.166 137.58 35.2582 137.817C35.3504 138.053 35.394 138.306 35.3864 138.56V146.667C35.3864 148 35.6764 148.954 36.2564 149.53C36.8364 150.105 37.6853 150.395 38.8031 150.4C39.8986 150.4 40.7475 150.078 41.3498 149.433C41.9498 148.79 42.2531 147.87 42.2531 146.667V138.56C42.2455 138.306 42.2891 138.053 42.3813 137.817C42.4735 137.58 42.6124 137.365 42.7898 137.183C43.1534 136.828 43.6415 136.629 44.1498 136.629C44.658 136.629 45.1461 136.828 45.5098 137.183H45.5064Z" fill="#DE1B1B"/>
<path d="M26.5766 131.933C26.7662 132.108 26.9164 132.321 27.017 132.559C27.1176 132.796 27.1663 133.052 27.1599 133.31V151.623C27.169 151.882 27.1243 152.139 27.0286 152.38C26.9329 152.62 26.7884 152.838 26.6041 153.019C26.4198 153.201 26.1998 153.342 25.9581 153.434C25.7164 153.526 25.4582 153.566 25.1999 153.553C24.935 153.562 24.6711 153.518 24.4237 153.423C24.1763 153.328 23.9506 153.184 23.7599 153C23.5756 152.82 23.4312 152.603 23.3359 152.364C23.2406 152.124 23.1965 151.867 23.2066 151.61V138.877L17.9999 146.847C17.7948 147.094 17.5477 147.302 17.2699 147.463C17.0128 147.617 16.7153 147.689 16.4166 147.67C16.1275 147.686 15.8405 147.614 15.5932 147.463C15.3159 147.303 15.0698 147.094 14.8665 146.847L9.63655 138.59V151.623C9.65526 152.13 9.47457 152.624 9.13322 153C8.96206 153.179 8.75462 153.32 8.52472 153.414C8.29482 153.507 8.04773 153.55 7.79988 153.54C7.55819 153.548 7.31762 153.504 7.09447 153.411C6.87132 153.317 6.67082 153.177 6.50655 153C6.16643 152.624 5.9849 152.13 5.99988 151.623V133.31C5.99661 133.054 6.04715 132.801 6.14822 132.566C6.24929 132.331 6.39863 132.12 6.58655 131.947C6.77129 131.763 6.99094 131.618 7.23254 131.521C7.47414 131.424 7.73279 131.376 7.99322 131.38C8.32417 131.382 8.6498 131.463 8.94322 131.617C9.234 131.755 9.48338 131.968 9.66655 132.233L16.5599 142.83L23.6666 132.233C23.8366 131.978 24.0651 131.766 24.3332 131.617C24.5974 131.463 24.8975 131.381 25.2032 131.38C25.4573 131.377 25.7093 131.425 25.945 131.52C26.1806 131.615 26.3952 131.755 26.5766 131.933Z" fill="#DE1B1B"/>
<path d="M119.643 68.8367C118.803 68.8295 117.979 68.5954 117.261 68.159C116.542 67.7226 115.955 67.1001 115.561 66.3574C115.166 65.6147 114.98 64.7793 115.022 63.9395C115.063 63.0998 115.331 62.2868 115.797 61.5867C121.207 53.5537 123.973 44.0311 123.708 34.3496C123.442 24.668 120.159 15.3112 114.317 7.58667C113.57 6.60448 113.245 5.36612 113.412 4.14401C113.579 2.9219 114.224 1.81614 115.207 1.07C116.189 0.323857 117.427 -0.00155436 118.649 0.165353C119.871 0.33226 120.977 0.977814 121.723 1.96C128.741 11.2324 132.684 22.4665 133.002 34.0907C133.32 45.7149 129.997 57.1478 123.497 66.79C123.071 67.4205 122.497 67.9369 121.825 68.2937C121.153 68.6506 120.404 68.837 119.643 68.8367Z" fill="#DE1B1B"/>
<path d="M105.473 54.2735C104.685 54.2647 103.913 54.0567 103.227 53.6689C102.542 53.2812 101.966 52.7262 101.552 52.0557C101.139 51.3853 100.902 50.6212 100.864 49.8345C100.826 49.0479 100.987 48.2643 101.333 47.5568C103.381 43.4298 104.334 38.8456 104.101 34.2442C103.867 29.6428 102.455 25.1786 99.9996 21.2801C99.6732 20.7645 99.4516 20.1896 99.3475 19.5883C99.2433 18.987 99.2586 18.3711 99.3925 17.7757C99.5264 17.1803 99.7762 16.6172 100.128 16.1183C100.479 15.6195 100.926 15.1948 101.441 14.8685C102.483 14.2094 103.743 13.991 104.946 14.2614C106.148 14.5318 107.194 15.2687 107.853 16.3101C111.165 21.5577 113.071 27.569 113.389 33.7662C113.707 39.9635 112.425 46.1382 109.666 51.6968C109.277 52.4743 108.678 53.1276 107.937 53.5829C107.196 54.0382 106.343 54.2774 105.473 54.2735Z" fill="#DE1B1B"/>
<path d="M40.3565 68.8366C39.5955 68.8381 38.8459 68.6522 38.1738 68.2952C37.5018 67.9383 36.928 67.4213 36.5032 66.7899C30.003 57.1478 26.6795 45.7149 26.9974 34.0907C27.3154 22.4665 31.259 11.2324 38.2765 1.95995C39.0209 0.977765 40.1249 0.331509 41.3458 0.163352C42.5666 -0.00480578 43.8043 0.318909 44.7865 1.06328C45.7687 1.80766 46.4149 2.91172 46.5831 4.13258C46.7512 5.35344 46.4275 6.5911 45.6832 7.57328C39.8407 15.2978 36.5575 24.6546 36.2921 34.3362C36.0268 44.0177 38.7926 53.5403 44.2032 61.5733C44.6686 62.2735 44.9363 63.0864 44.9778 63.9261C45.0194 64.7659 44.8333 65.6013 44.4392 66.344C44.0452 67.0867 43.4578 67.7092 42.7391 68.1456C42.0204 68.582 41.1972 68.8161 40.3565 68.8233V68.8366Z" fill="#DE1B1B"/>
<path d="M54.5263 54.2735C53.6618 54.2718 52.8147 54.0299 52.0796 53.575C51.3444 53.12 50.7501 52.4698 50.363 51.6968C47.6046 46.1382 46.3226 39.9635 46.6402 33.7662C46.9577 27.569 48.8642 21.5577 52.1763 16.3101C52.8353 15.2687 53.8811 14.5318 55.0835 14.2614C56.286 13.991 57.5465 14.2094 58.5879 14.8685C59.6294 15.5275 60.3663 16.5733 60.6367 17.7757C60.907 18.9781 60.6887 20.2387 60.0296 21.2801C57.5705 25.1764 56.1537 29.6391 55.915 34.2404C55.6762 38.8416 56.6236 43.4269 58.6663 47.5568C59.0176 48.2648 59.1826 49.0507 59.1457 49.8402C59.1089 50.6297 58.8714 51.3968 58.4557 52.0691C58.0401 52.7413 57.4599 53.2965 56.77 53.6822C56.0801 54.0679 55.3033 54.2714 54.5129 54.2735H54.5263Z" fill="#DE1B1B"/>
<path d="M119.124 111.753L89.9704 42.9667C91.3316 41.1218 92.1542 38.9354 92.3466 36.6508C92.5391 34.3662 92.0939 32.0729 91.0605 30.0263C90.0271 27.9797 88.4462 26.2599 86.4935 25.0584C84.5408 23.8569 82.2931 23.2207 80.0004 23.2207C77.7076 23.2207 75.4599 23.8569 73.5072 25.0584C71.5546 26.2599 69.9736 27.9797 68.9402 30.0263C67.9069 32.0729 67.4616 34.3662 67.6541 36.6508C67.8466 38.9354 68.6692 41.1218 70.0304 42.9667L40.877 111.753C40.6279 112.317 40.4934 112.925 40.4814 113.541C40.4693 114.157 40.58 114.77 40.8069 115.343C41.0338 115.916 41.3724 116.438 41.8031 116.879C42.2337 117.319 42.7477 117.67 43.3152 117.911C43.8828 118.151 44.4924 118.276 45.1087 118.278C45.725 118.281 46.3356 118.161 46.905 117.925C47.4744 117.689 47.9912 117.342 48.4254 116.905C48.8595 116.467 49.2022 115.948 49.4337 115.377L52.477 108.19C60.117 103.333 69.877 100.667 80.257 100.667C90.257 100.667 99.797 103.18 107.337 107.76L110.567 115.383C110.798 115.955 111.141 116.474 111.575 116.911C112.009 117.349 112.526 117.696 113.096 117.931C113.665 118.167 114.276 118.287 114.892 118.285C115.508 118.283 116.118 118.158 116.685 117.917C117.253 117.677 117.767 117.326 118.198 116.885C118.628 116.444 118.967 115.922 119.194 115.349C119.421 114.776 119.531 114.164 119.519 113.548C119.507 112.931 119.373 112.324 119.124 111.76V111.753ZM80.0004 48.0001C80.6523 47.9999 81.3031 47.9486 81.947 47.8467L94.0004 76.2601C84.7529 74.336 75.2043 74.3769 65.9737 76.3801L78.067 47.8501C78.7066 47.9502 79.353 48.0003 80.0004 48.0001ZM80.257 91.3634C72.664 91.3335 65.1244 92.6343 57.9804 95.2067L61.3137 87.3667C73.3749 83.1379 86.5034 83.0604 98.6137 87.1467L101.947 94.9967C94.9742 92.5692 87.6403 91.3418 80.257 91.3667V91.3634Z" fill="#78858B"/>
</svg>
