<svg width="80" height="80" viewBox="0 0 80 80" fill="none" xmlns="http://www.w3.org/2000/svg">
<path d="M76.6736 68.4265C76.7724 68.5003 76.8529 68.5958 76.909 68.7056C76.965 68.8154 76.9951 68.9366 76.9969 69.0599C77.0071 69.1932 76.9898 69.3272 76.9463 69.4536C76.9027 69.58 76.8337 69.6961 76.7436 69.7949C76.665 69.8737 76.5714 69.936 76.4684 69.9781C76.3653 70.0202 76.2549 70.0412 76.1436 70.0399C75.9591 70.0348 75.777 69.9975 75.6053 69.9299L75.3919 69.8665C75.2759 69.834 75.1558 69.8177 75.0353 69.8182C74.7525 69.8214 74.4772 69.9097 74.2453 70.0715C73.9711 70.2655 73.755 70.5306 73.6203 70.8382C73.4482 71.2237 73.3645 71.6428 73.3753 72.0649V75.8132C73.3787 75.94 73.3567 76.0663 73.3106 76.1845C73.2645 76.3027 73.1953 76.4105 73.1069 76.5015C72.9251 76.6791 72.681 76.7785 72.4269 76.7785C72.1728 76.7785 71.9287 76.6791 71.7469 76.5015C71.658 76.4108 71.5883 76.3031 71.5419 76.1848C71.4955 76.0666 71.4734 75.9402 71.4769 75.8132V69.2815C71.4734 69.1546 71.4955 69.0282 71.5419 68.9099C71.5883 68.7917 71.658 68.684 71.7469 68.5932C71.9287 68.4157 72.1728 68.3163 72.4269 68.3163C72.681 68.3163 72.9251 68.4157 73.1069 68.5932C73.1953 68.6843 73.2645 68.7921 73.3106 68.9103C73.3567 69.0285 73.3787 69.1547 73.3753 69.2815V69.4865C73.6136 69.058 73.9778 68.713 74.4186 68.4982C74.8706 68.2743 75.3691 68.1601 75.8736 68.1649C76.1629 68.1543 76.4465 68.247 76.6736 68.4265Z" fill="#78858B"/>
<path d="M69.5942 72.9613C69.4083 73.1188 69.1712 73.2029 68.9276 73.1979H63.7109C63.8109 73.7762 64.1206 74.2972 64.5809 74.6613C65.0167 75.0086 65.5586 75.1957 66.1159 75.1913C66.4571 75.2024 66.7981 75.1625 67.1276 75.0729C67.3291 75.0116 67.5227 74.9265 67.7042 74.8196L67.9976 74.6379C68.1628 74.549 68.3466 74.4999 68.5342 74.4946C68.6405 74.4933 68.7459 74.5138 68.8439 74.5548C68.9419 74.5958 69.0305 74.6564 69.1042 74.7329C69.1796 74.804 69.2395 74.8897 69.2802 74.985C69.3209 75.0802 69.3416 75.1827 69.3409 75.2863C69.3334 75.4411 69.2896 75.592 69.2128 75.7266C69.1361 75.8613 69.0286 75.976 68.8992 76.0613C68.5431 76.3351 68.1414 76.5439 67.7126 76.6779C67.0883 76.8869 66.4283 76.9681 65.772 76.9165C65.1158 76.865 64.4766 76.6818 63.8926 76.3779C63.2494 76.0239 62.72 75.4945 62.3659 74.8513C62.0023 74.1799 61.8175 73.4263 61.8292 72.6629C61.8115 71.8319 62.0071 71.0101 62.3976 70.2763C62.7447 69.6244 63.2634 69.0798 63.8976 68.7013C64.5026 68.3419 65.1939 68.1535 65.8976 68.1563C66.5943 68.1567 67.2767 68.3543 67.8659 68.7263C68.4812 69.1032 68.9901 69.631 69.3442 70.2596C69.7112 70.8941 69.9022 71.615 69.8976 72.3479C69.8949 72.4661 69.8664 72.5823 69.814 72.6883C69.7616 72.7943 69.6866 72.8875 69.5942 72.9613ZM63.7276 71.6163H67.8709V71.5063C67.8471 71.2821 67.7773 71.0652 67.6657 70.8693C67.5541 70.6734 67.4033 70.5027 67.2226 70.3679C66.8485 70.0565 66.3759 69.8881 65.8892 69.8929C64.6692 69.8929 63.9487 70.4674 63.7276 71.6163Z" fill="#78858B"/>
<path d="M58.6435 67.1128C58.4952 66.9961 58.4219 66.7911 58.4219 66.4961V66.1945C58.4219 65.8995 58.5019 65.6945 58.6602 65.5778C58.8901 65.4464 59.1547 65.3882 59.4185 65.4111C59.7869 65.4111 60.0452 65.4695 60.1935 65.5778C60.3419 65.6861 60.4152 65.8995 60.4152 66.1945V66.4994C60.4152 66.8044 60.3385 67.0128 60.1852 67.1228C60.0319 67.2328 59.7719 67.2894 59.4035 67.2894C59.0352 67.2894 58.7919 67.2278 58.6435 67.1128ZM60.0985 76.4994C59.9167 76.677 59.6727 76.7764 59.4185 76.7764C59.1644 76.7764 58.9204 76.677 58.7385 76.4994C58.6499 76.4086 58.5804 76.3008 58.5343 76.1826C58.4882 76.0643 58.4664 75.938 58.4702 75.8111V69.2794C58.4664 69.1526 58.4882 69.0262 58.5343 68.908C58.5804 68.7897 58.6499 68.6819 58.7385 68.5911C58.9204 68.4136 59.1644 68.3142 59.4185 68.3142C59.6727 68.3142 59.9167 68.4136 60.0985 68.5911C60.1872 68.6819 60.2567 68.7897 60.3028 68.908C60.3489 69.0262 60.3707 69.1526 60.3669 69.2794V75.8111C60.3707 75.938 60.3489 76.0643 60.3028 76.1826C60.2567 76.3008 60.1872 76.4086 60.0985 76.4994Z" fill="#78858B"/>
<path d="M56.9051 68.4268C57.0044 68.5002 57.0854 68.5956 57.1418 68.7054C57.1982 68.8153 57.2284 68.9367 57.2301 69.0601C57.2403 69.1934 57.223 69.3274 57.1795 69.4538C57.1359 69.5802 57.0669 69.6964 56.9768 69.7951C56.898 69.8742 56.8042 69.9366 56.7008 69.9787C56.5975 70.0208 56.4867 70.0417 56.3751 70.0401C56.1912 70.035 56.0096 69.9978 55.8385 69.9301L55.6251 69.8668C55.5091 69.8342 55.389 69.8179 55.2685 69.8185C54.9856 69.8213 54.7102 69.9096 54.4785 70.0718C54.2043 70.2658 53.9882 70.5308 53.8535 70.8385C53.6814 71.224 53.5977 71.6431 53.6085 72.0651V75.8135C53.6111 75.9409 53.5879 76.0676 53.5404 76.1859C53.4928 76.3042 53.4219 76.4116 53.3318 76.5018C53.15 76.6794 52.9059 76.7787 52.6518 76.7787C52.3977 76.7787 52.1536 76.6794 51.9718 76.5018C51.8834 76.4108 51.8142 76.303 51.7681 76.1847C51.722 76.0665 51.7001 75.9403 51.7035 75.8135V69.2818C51.7001 69.155 51.722 69.0287 51.7681 68.9105C51.8142 68.7923 51.8834 68.6845 51.9718 68.5935C52.1536 68.4159 52.3977 68.3165 52.6518 68.3165C52.9059 68.3165 53.15 68.4159 53.3318 68.5935C53.4207 68.6842 53.4904 68.7919 53.5368 68.9102C53.5832 69.0284 53.6053 69.1548 53.6018 69.2818V69.4868C53.8401 69.0583 54.2043 68.7133 54.6451 68.4985C55.0972 68.2745 55.5957 68.1603 56.1001 68.1651C56.3912 68.1529 56.6769 68.2458 56.9051 68.4268Z" fill="#78858B"/>
<path d="M50.047 68.4265C50.1461 68.5 50.2268 68.5954 50.2829 68.7053C50.339 68.8152 50.3689 68.9365 50.3703 69.0599C50.3807 69.1931 50.3637 69.327 50.3205 69.4534C50.2772 69.5798 50.2085 69.696 50.1187 69.7949C50.0399 69.8739 49.9461 69.9363 49.8427 69.9784C49.7393 70.0205 49.6286 70.0414 49.517 70.0399C49.3325 70.0348 49.1504 69.9975 48.9787 69.9299L48.7653 69.8666C48.6499 69.8339 48.5304 69.8176 48.4103 69.8182C48.127 69.8212 47.8511 69.9095 47.6187 70.0716C47.345 70.266 47.129 70.5309 46.9937 70.8382C46.8216 71.2237 46.7379 71.6429 46.7487 72.0649V75.8132C46.7525 75.9401 46.7307 76.0664 46.6845 76.1847C46.6384 76.303 46.569 76.4107 46.4803 76.5016C46.2985 76.6791 46.0545 76.7785 45.8003 76.7785C45.5462 76.7785 45.3021 76.6791 45.1203 76.5016C45.0317 76.4107 44.9622 76.303 44.9161 76.1847C44.87 76.0664 44.8482 75.9401 44.852 75.8132V69.2815C44.8482 69.1547 44.87 69.0283 44.9161 68.9101C44.9622 68.7918 45.0317 68.684 45.1203 68.5932C45.3021 68.4157 45.5462 68.3163 45.8003 68.3163C46.0545 68.3163 46.2985 68.4157 46.4803 68.5932C46.569 68.684 46.6384 68.7918 46.6845 68.9101C46.7307 69.0283 46.7525 69.1547 46.7487 69.2815V69.4866C46.9881 69.0583 47.3527 68.7134 47.7937 68.4982C48.2457 68.2743 48.7442 68.1601 49.2487 68.1649C49.5375 68.1543 49.8205 68.247 50.047 68.4265Z" fill="#78858B"/>
<path d="M42.5227 68.425C42.6123 68.5169 42.6823 68.626 42.7285 68.7458C42.7746 68.8656 42.7959 68.9935 42.791 69.1217V75.8117C42.7945 75.9385 42.7725 76.0648 42.7264 76.183C42.6803 76.3012 42.6111 76.409 42.5227 76.5C42.4346 76.5906 42.3287 76.6619 42.2117 76.7096C42.0946 76.7572 41.969 76.78 41.8427 76.7767C41.7189 76.7806 41.5957 76.7585 41.4809 76.7121C41.3661 76.6656 41.2623 76.5956 41.176 76.5067C41.0003 76.3236 40.9008 76.0805 40.8977 75.8267C40.5815 76.1709 40.1982 76.4467 39.7714 76.6373C39.3446 76.8279 38.8834 76.9292 38.416 76.935C37.7162 76.9424 37.0292 76.7474 36.4377 76.3734C35.8393 75.9899 35.356 75.4514 35.0394 74.815C34.6874 74.1139 34.5107 73.3378 34.5244 72.5534C34.5091 71.7678 34.6804 70.9898 35.0244 70.2834C35.3339 69.6452 35.8123 69.1039 36.4077 68.7184C36.9851 68.3459 37.659 68.1506 38.346 68.1567C38.8342 68.1533 39.3181 68.2473 39.7694 68.4334C40.1818 68.5999 40.5616 68.838 40.891 69.1367V69.1217C40.8882 68.9944 40.9111 68.8678 40.9584 68.7495C41.0056 68.6312 41.0763 68.5237 41.166 68.4334C41.2537 68.3422 41.3595 68.2705 41.4767 68.2229C41.5938 68.1752 41.7197 68.1527 41.846 68.1567C41.9711 68.1534 42.0955 68.1755 42.2118 68.2217C42.3281 68.2678 42.4339 68.337 42.5227 68.425ZM40.3327 74.4434C40.7747 73.915 41.0057 73.2418 40.981 72.5534C41.0037 71.8627 40.7731 71.1876 40.3327 70.655C40.1287 70.4101 39.8719 70.2146 39.5815 70.0833C39.2911 69.9519 38.9747 69.8882 38.656 69.8967C38.3389 69.8881 38.0239 69.9519 37.7351 70.0833C37.4463 70.2147 37.1912 70.4102 36.9894 70.655C36.5694 71.1967 36.3407 71.8623 36.3392 72.5478C36.3377 73.2332 36.5634 73.8998 36.981 74.4434C37.1836 74.687 37.4389 74.8812 37.7277 75.0115C38.0164 75.1417 38.3311 75.2045 38.6477 75.195C38.9671 75.2054 39.2848 75.1432 39.5767 75.013C39.8685 74.8828 40.127 74.688 40.3327 74.4434Z" fill="#78858B"/>
<path d="M33.4737 67.0462C33.4679 67.2824 33.3847 67.5102 33.2371 67.6946C33.1642 67.7986 33.0671 67.8834 32.9541 67.9414C32.8412 67.9995 32.7157 68.0292 32.5887 68.0279C32.4003 68.0261 32.2153 67.9774 32.0504 67.8862C31.4807 67.6294 30.8601 67.5051 30.2354 67.5228C29.6107 67.5404 28.9981 67.6994 28.4437 67.9879C27.9024 68.2922 27.4625 68.7489 27.1787 69.3012C26.8753 69.901 26.7231 70.5659 26.7354 71.2379C26.7354 72.4835 27.0687 73.4279 27.7354 74.0712C28.4021 74.7146 29.2798 75.0362 30.3687 75.0362C30.951 75.0477 31.5276 74.9197 32.0504 74.6629C32.2065 74.5866 32.3768 74.5435 32.5504 74.5362C32.6852 74.5361 32.8182 74.5674 32.9388 74.6275C33.0594 74.6877 33.1644 74.7751 33.2454 74.8829C33.397 75.0657 33.4806 75.2954 33.4821 75.5329C33.4842 75.6946 33.4403 75.8536 33.3554 75.9912C33.2681 76.1303 33.1417 76.2404 32.9921 76.3079C32.1776 76.7168 31.2784 76.928 30.3671 76.9246C29.3795 76.9346 28.4038 76.7095 27.5204 76.2679C26.6613 75.832 25.9448 75.1594 25.4554 74.3296C24.9387 73.4762 24.6804 72.4429 24.6804 71.2296C24.6643 70.217 24.918 69.2184 25.4154 68.3362C25.8941 67.4941 26.5975 66.8016 27.4471 66.3362C28.3447 65.8494 29.3527 65.602 30.3737 65.6179C31.2807 65.6102 32.1761 65.8218 32.9837 66.2346C33.1372 66.3053 33.2659 66.4205 33.3533 66.5652C33.4406 66.7099 33.4826 66.8775 33.4737 67.0462Z" fill="#78858B"/>
<path d="M22.7542 68.5894C22.8428 68.6803 22.9123 68.788 22.9584 68.9063C23.0045 69.0245 23.0263 69.1509 23.0225 69.2778V75.9978C23.0225 77.3678 22.6536 78.3678 21.9159 78.9978C21.1781 79.6278 20.1925 79.9417 18.9592 79.9394C18.5908 79.9384 18.223 79.9088 17.8592 79.8511C17.5486 79.8106 17.2437 79.734 16.9509 79.6228C16.432 79.4006 16.1731 79.0944 16.1742 78.7044C16.1768 78.6185 16.1932 78.5336 16.2225 78.4528C16.2699 78.2457 16.3834 78.0596 16.5459 77.9228C16.6863 77.8059 16.8631 77.7416 17.0459 77.7411C17.1483 77.7402 17.2502 77.756 17.3475 77.7878C17.4209 77.8194 17.5492 77.8728 17.7342 77.9461C17.9242 78.0216 18.1198 78.0823 18.3192 78.1278C18.5296 78.1763 18.7449 78.2003 18.9609 78.1994C19.7086 78.1994 20.2592 78.0383 20.6125 77.7161C20.9659 77.3939 21.1425 76.8433 21.1425 76.0644V75.9061C20.5936 76.5917 19.7397 76.9344 18.5809 76.9344C18.069 76.9441 17.5648 76.8095 17.1259 76.5461C16.704 76.2873 16.3637 75.9147 16.1442 75.4711C15.9058 74.9815 15.787 74.4423 15.7975 73.8978V69.2778C15.7937 69.1509 15.8155 69.0245 15.8616 68.9063C15.9077 68.788 15.9772 68.6803 16.0659 68.5894C16.2477 68.4119 16.4917 68.3125 16.7459 68.3125C17 68.3125 17.244 68.4119 17.4259 68.5894C17.5145 68.6803 17.584 68.788 17.6301 68.9063C17.6762 69.0245 17.698 69.1509 17.6942 69.2778V73.3311C17.6942 73.9978 17.8392 74.475 18.1292 74.7628C18.4192 75.0505 18.8436 75.1955 19.4025 75.1978C19.9503 75.1978 20.3747 75.0367 20.6759 74.7144C20.9759 74.3928 21.1275 73.9328 21.1275 73.3311V69.2778C21.1237 69.1509 21.1455 69.0245 21.1916 68.9063C21.2377 68.788 21.3072 68.6803 21.3959 68.5894C21.5777 68.4119 21.8217 68.3125 22.0759 68.3125C22.33 68.3125 22.574 68.4119 22.7559 68.5894H22.7542Z" fill="#DE1B1B"/>
<path d="M13.2888 65.9643C13.3836 66.0516 13.4587 66.1582 13.509 66.2769C13.5593 66.3957 13.5837 66.5237 13.5804 66.6526V75.8093C13.585 75.9385 13.5626 76.0673 13.5148 76.1874C13.467 76.3076 13.3947 76.4165 13.3025 76.5072C13.2104 76.5979 13.1004 76.6685 12.9795 76.7145C12.8587 76.7605 12.7296 76.7808 12.6004 76.7743C12.468 76.7788 12.336 76.7566 12.2123 76.7091C12.0886 76.6616 11.9758 76.5897 11.8804 76.4976C11.7883 76.4076 11.7161 76.2992 11.6684 76.1795C11.6208 76.0598 11.5987 75.9314 11.6038 75.8026V69.436L9.00043 73.421C8.89789 73.5445 8.77432 73.6488 8.63543 73.7293C8.50689 73.806 8.35815 73.842 8.20876 73.8326C8.06426 73.8405 7.92074 73.8045 7.7971 73.7293C7.65845 73.6492 7.53538 73.5447 7.43376 73.421L4.81876 69.2926V75.8093C4.82812 76.0628 4.73777 76.3099 4.5671 76.4976C4.48152 76.5874 4.3778 76.6579 4.26285 76.7045C4.1479 76.751 4.02435 76.7725 3.90043 76.7676C3.77959 76.7716 3.6593 76.7496 3.54772 76.703C3.43615 76.6564 3.3359 76.5864 3.25376 76.4976C3.0837 76.3094 2.99294 76.0628 3.00043 75.8093V66.6526C2.99879 66.5248 3.02406 66.398 3.0746 66.2806C3.12513 66.1632 3.1998 66.0577 3.29376 65.971C3.38613 65.8792 3.49596 65.8068 3.61676 65.7581C3.73756 65.7095 3.86688 65.6855 3.9971 65.6876C4.16257 65.6888 4.32539 65.7294 4.4721 65.806C4.61749 65.8754 4.74218 65.9817 4.83376 66.1143L8.28043 71.4126L11.8338 66.1143C11.9188 65.9865 12.033 65.8808 12.1671 65.806C12.2992 65.7291 12.4492 65.6882 12.6021 65.6876C12.7291 65.6864 12.8551 65.7102 12.973 65.7576C13.0908 65.8051 13.1981 65.8753 13.2888 65.9643Z" fill="#DE1B1B"/>
<path d="M59.8246 34.4196C59.4042 34.416 58.9926 34.2989 58.6333 34.0807C58.2739 33.8625 57.9802 33.5513 57.7832 33.1799C57.5862 32.8086 57.4931 32.3909 57.5139 31.971C57.5347 31.5511 57.6685 31.1446 57.9012 30.7946C60.6065 26.7781 61.9894 22.0168 61.8568 17.176C61.7241 12.3352 60.0824 7.65684 57.1612 3.79455C56.7882 3.30346 56.6254 2.68428 56.7089 2.07322C56.7924 1.46217 57.1151 0.909291 57.6062 0.53622C58.0973 0.163149 58.7165 0.000443526 59.3276 0.0838972C59.9386 0.167351 60.4915 0.490128 60.8646 0.98122C64.3733 5.61743 66.3451 11.2345 66.5041 17.0466C66.6631 22.8587 65.0013 28.5751 61.7512 33.3962C61.5384 33.7115 61.2514 33.9697 60.9155 34.1481C60.5795 34.3265 60.2049 34.4197 59.8246 34.4196Z" fill="#DE1B1B"/>
<path d="M52.7374 27.1329C52.3437 27.1285 51.9574 27.0246 51.6147 26.8307C51.2719 26.6368 50.9838 26.3593 50.7772 26.0241C50.5705 25.6889 50.4521 25.3068 50.4329 24.9135C50.4137 24.5201 50.4944 24.1284 50.6674 23.7746C51.6916 21.7111 52.1682 19.419 52.0514 17.1183C51.9347 14.8176 51.2285 12.5855 50.0008 10.6363C49.8376 10.3785 49.7268 10.091 49.6747 9.79037C49.6226 9.48973 49.6303 9.18177 49.6972 8.88408C49.7642 8.58639 49.8891 8.3048 50.0648 8.05538C50.2406 7.80597 50.4638 7.59362 50.7216 7.43045C51.2423 7.10092 51.8726 6.99174 52.4738 7.12692C53.075 7.2621 53.5979 7.63058 53.9274 8.15128C55.5835 10.7751 56.5367 13.7807 56.6955 16.8793C56.8543 19.978 56.2132 23.0653 54.8341 25.8446C54.6394 26.2334 54.3399 26.56 53.9694 26.7877C53.5989 27.0153 53.1722 27.1349 52.7374 27.1329Z" fill="#DE1B1B"/>
<path d="M20.1822 34.4131C19.8017 34.4138 19.4269 34.3208 19.0908 34.1424C18.7548 33.9639 18.4679 33.7054 18.2555 33.3897C15.0054 28.5686 13.3436 22.8522 13.5026 17.0401C13.6616 11.228 15.6334 5.61094 19.1422 0.974726C19.5143 0.483633 20.0664 0.160506 20.6768 0.0764269C21.2872 -0.00765191 21.9061 0.154206 22.3972 0.526393C22.8882 0.89858 23.2114 1.45061 23.2955 2.06104C23.3795 2.67147 23.2177 3.2903 22.8455 3.78139C19.9243 7.64367 18.2826 12.3221 18.15 17.1628C18.0173 22.0036 19.4002 26.7649 22.1055 30.7814C22.3382 31.1315 22.472 31.5379 22.4928 31.9578C22.5136 32.3777 22.4206 32.7954 22.2235 33.1667C22.0265 33.5381 21.7328 33.8493 21.3735 34.0675C21.0141 34.2857 20.6025 34.4028 20.1822 34.4064V34.4131Z" fill="#DE1B1B"/>
<path d="M27.2636 27.1329C26.8314 27.1321 26.4078 27.0112 26.0403 26.7837C25.6727 26.5562 25.3756 26.2311 25.182 25.8446C23.8028 23.0653 23.1618 19.978 23.3206 16.8793C23.4794 13.7807 24.4326 10.7751 26.0886 8.15128C26.4182 7.63058 26.941 7.2621 27.5423 7.12692C28.1435 6.99174 28.7738 7.10092 29.2945 7.43045C29.8152 7.75998 30.1836 8.28287 30.3188 8.88408C30.454 9.48529 30.3448 10.1156 30.0153 10.6363C28.7858 12.5844 28.0773 14.8158 27.958 17.1164C27.8386 19.417 28.3123 21.7097 29.3336 23.7746C29.5093 24.1286 29.5918 24.5216 29.5734 24.9163C29.5549 25.3111 29.4362 25.6946 29.2284 26.0308C29.0205 26.3669 28.7304 26.6445 28.3855 26.8373C28.0406 27.0302 27.6521 27.1319 27.257 27.1329H27.2636Z" fill="#DE1B1B"/>
<path d="M59.5638 55.8757L44.9871 21.4824C45.6677 20.5599 46.079 19.4667 46.1753 18.3244C46.2715 17.1821 46.0489 16.0355 45.5322 15.0122C45.0155 13.9889 44.225 13.129 43.2487 12.5282C42.2724 11.9275 41.1485 11.6094 40.0021 11.6094C38.8558 11.6094 37.7319 11.9275 36.7556 12.5282C35.7792 13.129 34.9887 13.9889 34.4721 15.0122C33.9554 16.0355 33.7328 17.1821 33.829 18.3244C33.9252 19.4667 34.3365 20.5599 35.0171 21.4824L20.4405 55.8757C20.3159 56.1576 20.2487 56.4614 20.2426 56.7695C20.2366 57.0776 20.2919 57.3838 20.4054 57.6703C20.5188 57.9568 20.6882 58.2179 20.9035 58.4383C21.1188 58.6587 21.3758 58.8341 21.6596 58.9543C21.9433 59.0745 22.2482 59.137 22.5563 59.1382C22.8645 59.1394 23.1698 59.0793 23.4545 58.9614C23.7392 58.8435 23.9976 58.6702 24.2146 58.4514C24.4317 58.2327 24.6031 57.973 24.7188 57.6874L26.2405 54.0941C30.0605 51.6657 34.9405 50.3324 40.1305 50.3324C45.1305 50.3324 49.9005 51.5891 53.6705 53.8791L55.2855 57.6907C55.4012 57.9763 55.5726 58.236 55.7896 58.4548C56.0067 58.6735 56.2651 58.8469 56.5498 58.9648C56.8345 59.0827 57.1398 59.1427 57.448 59.1415C57.7561 59.1403 58.0609 59.0778 58.3447 58.9576C58.6285 58.8375 58.8855 58.6621 59.1008 58.4416C59.3161 58.2212 59.4854 57.9601 59.5989 57.6736C59.7123 57.3871 59.7677 57.0809 59.7616 56.7728C59.7556 56.4647 59.6884 56.1609 59.5638 55.8791V55.8757ZM40.0021 23.9991C40.3281 23.999 40.6535 23.9733 40.9755 23.9224L47.0021 38.1291C42.3784 37.167 37.6041 37.1875 32.9888 38.1891L39.0355 23.9241C39.3553 23.9741 39.6785 23.9992 40.0021 23.9991ZM40.1305 45.6807C36.334 45.6658 32.5642 46.3162 28.9921 47.6024L30.6588 43.6824C36.6894 41.568 43.2537 41.5292 49.3088 43.5724L50.9755 47.4974C47.4891 46.2836 43.8221 45.6699 40.1305 45.6824V45.6807Z" fill="#78858B"/>
</svg>
