<svg width="81" height="80" viewBox="0 0 81 80" fill="none" xmlns="http://www.w3.org/2000/svg">
<path d="M12.687 45.6042L0.00292969 31.1949L37.9536 4L75.9042 31.1949L63.0172 45.6042H12.687Z" fill="#6C63FF"/>
<path d="M12.687 45.6042L0.00292969 31.1949L37.9536 4L75.9042 31.1949L63.0172 45.6042H12.687Z" fill="#900E0E"/>
<path d="M74.0777 33.0215H0.00292969V65.3916H74.0777V33.0215Z" fill="#6C63FF"/>
<path d="M74.0777 33.0215H0.00292969V65.3916H74.0777V33.0215Z" fill="#F55151"/>
<path d="M75.9042 76.9599H0.00292969V31.1953L37.9536 54.1284L75.9042 31.1953V76.9599Z" fill="#DE1B1B"/>
<path d="M66.2205 15.857L58.1707 9.68457L36.8474 37.4936L25.0045 28.4126L18.832 36.4624L34.6987 48.6107L38.7676 51.6601L66.2205 15.857Z" fill="#3AD29F"/>
<path d="M0.32131 20.931L0.0195312 21.0784L0.0542348 21.0167L0.0277505 21.0252L0.0648894 20.9977L4.12652 13.7695L6.20275 15.5398L7.98389 17.1889L7.47247 17.4386L8.04741 18.4527L0.32131 20.931Z" fill="url(#paint0_linear_36242_11757)"/>
<path d="M5.99714 15.7324L7.62516 17.2419L0.246094 20.9105L4.17297 15.8774L5.99714 15.7324Z" fill="#6C63FF"/>
<path d="M5.99714 15.7324L7.62516 17.2419L0.246094 20.9105L4.17297 15.8774L5.99714 15.7324Z" fill="#F55151"/>
<path d="M4.09819 14.1133L0.246094 20.9106L5.99715 15.7325L4.09819 14.1133Z" fill="#DE1B1B"/>
<path d="M7.67255 18.4102L0.253906 20.8608L6.45539 16.2314L7.67255 18.4102Z" fill="#DE1B1B"/>
<path d="M69.7112 7.93037L68.0859 10.7482L80.0027 12.6887L72.3274 7.34375L69.7112 7.93037Z" fill="#6C63FF"/>
<path d="M69.7112 7.93037L68.0859 10.7482L80.0027 12.6887L72.3274 7.34375L69.7112 7.93037Z" fill="#F55151"/>
<path d="M71.6681 4.8418L80.0026 12.6887L69.7109 7.93035L71.6681 4.8418Z" fill="#DE1B1B"/>
<path d="M68.5234 12.4075L79.9683 12.6262L69.284 8.83105L68.5234 12.4075Z" fill="#DE1B1B"/>
<defs>
<linearGradient id="paint0_linear_36242_11757" x1="6.04076" y1="20.807" x2="1.45818" y2="16.8998" gradientUnits="userSpaceOnUse">
<stop stop-color="#808080" stop-opacity="0.25"/>
<stop offset="0.53514" stop-color="#808080" stop-opacity="0.12"/>
<stop offset="1" stop-color="#808080" stop-opacity="0.1"/>
</linearGradient>
</defs>
</svg>
